<mxfile host="Electron" agent="Mozilla/5.0 (Windows NT 10.0; Win64; x64) AppleWebKit/537.36 (KHTML, like Gecko) draw.io/24.7.8 Chrome/128.0.6613.36 Electron/32.0.1 Safari/537.36" version="24.7.8" pages="3">
  <diagram name="기기연결" id="5qDuznM82rCRKL5Qjks3">
    <mxGraphModel dx="1562" dy="3284" grid="1" gridSize="10" guides="1" tooltips="1" connect="1" arrows="1" fold="1" page="1" pageScale="1" pageWidth="827" pageHeight="1169" math="0" shadow="0">
      <root>
        <mxCell id="0" />
        <mxCell id="1" parent="0" />
        <mxCell id="Zxa0VbdAIg18inWHZpzh-1" value="SimulatorThinq&#xa;Controller" style="shape=umlLifeline;perimeter=lifelinePerimeter;whiteSpace=wrap;container=1;dropTarget=0;collapsible=0;recursiveResize=0;outlineConnect=0;portConstraint=eastwest;newEdgeStyle={&quot;curved&quot;:0,&quot;rounded&quot;:0};" parent="1" vertex="1">
          <mxGeometry x="40" y="-2200" width="100" height="762" as="geometry" />
        </mxCell>
        <mxCell id="Zxa0VbdAIg18inWHZpzh-2" value="" style="html=1;points=[[0,0,0,0,5],[0,1,0,0,-5],[1,0,0,0,5],[1,1,0,0,-5]];perimeter=orthogonalPerimeter;outlineConnect=0;targetShapes=umlLifeline;portConstraint=eastwest;newEdgeStyle={&quot;curved&quot;:0,&quot;rounded&quot;:0};" parent="Zxa0VbdAIg18inWHZpzh-1" vertex="1">
          <mxGeometry x="45" y="80" width="10" height="660" as="geometry" />
        </mxCell>
        <mxCell id="Zxa0VbdAIg18inWHZpzh-3" value="SimulatorThinq&#xa;Service" style="shape=umlLifeline;perimeter=lifelinePerimeter;whiteSpace=wrap;container=1;dropTarget=0;collapsible=0;recursiveResize=0;outlineConnect=0;portConstraint=eastwest;newEdgeStyle={&quot;curved&quot;:0,&quot;rounded&quot;:0};" parent="1" vertex="1">
          <mxGeometry x="247" y="-2200" width="100" height="762" as="geometry" />
        </mxCell>
        <mxCell id="Zxa0VbdAIg18inWHZpzh-4" value="" style="html=1;points=[[0,0,0,0,5],[0,1,0,0,-5],[1,0,0,0,5],[1,1,0,0,-5]];perimeter=orthogonalPerimeter;outlineConnect=0;targetShapes=umlLifeline;portConstraint=eastwest;newEdgeStyle={&quot;curved&quot;:0,&quot;rounded&quot;:0};" parent="Zxa0VbdAIg18inWHZpzh-3" vertex="1">
          <mxGeometry x="45" y="120" width="10" height="620" as="geometry" />
        </mxCell>
        <mxCell id="Zxa0VbdAIg18inWHZpzh-5" value="" style="html=1;points=[[0,0,0,0,5],[0,1,0,0,-5],[1,0,0,0,5],[1,1,0,0,-5]];perimeter=orthogonalPerimeter;outlineConnect=0;targetShapes=umlLifeline;portConstraint=eastwest;newEdgeStyle={&quot;curved&quot;:0,&quot;rounded&quot;:0};" parent="Zxa0VbdAIg18inWHZpzh-3" vertex="1">
          <mxGeometry x="55" y="580" width="10" height="40" as="geometry" />
        </mxCell>
        <mxCell id="Zxa0VbdAIg18inWHZpzh-6" value="commonHeader.put(&quot;Authorization&quot;&#x9;,&#x9;usrEmpInfoMap.get(&quot;accessToken&quot;)&#x9;&#x9;&#x9;);" style="align=left;spacingLeft=2;endArrow=block;rounded=0;edgeStyle=orthogonalEdgeStyle;curved=0;rounded=0;" parent="Zxa0VbdAIg18inWHZpzh-3" source="Zxa0VbdAIg18inWHZpzh-4" target="Zxa0VbdAIg18inWHZpzh-5" edge="1">
          <mxGeometry relative="1" as="geometry">
            <mxPoint x="60" y="560" as="sourcePoint" />
            <Array as="points">
              <mxPoint x="90" y="570" />
              <mxPoint x="90" y="600" />
            </Array>
          </mxGeometry>
        </mxCell>
        <mxCell id="Zxa0VbdAIg18inWHZpzh-7" value="&lt;pre&gt;&lt;span style=&quot;padding: 0px 0px 0px 2px;&quot;&gt;&lt;span style=&quot;font-family: Consolas; font-size: 10pt; white-space-collapse: preserve;&quot;&gt;connThinqConnections&lt;/span&gt;&lt;/span&gt;&lt;/pre&gt;" style="html=1;verticalAlign=bottom;startArrow=oval;startFill=1;endArrow=block;startSize=8;curved=0;rounded=0;" parent="1" target="Zxa0VbdAIg18inWHZpzh-4" edge="1">
          <mxGeometry x="-0.0017" width="60" relative="1" as="geometry">
            <mxPoint x="95" y="-2070" as="sourcePoint" />
            <mxPoint x="292.0000000000002" y="-2070" as="targetPoint" />
            <mxPoint as="offset" />
          </mxGeometry>
        </mxCell>
        <mxCell id="Zxa0VbdAIg18inWHZpzh-8" value="ApiConnEmpOAuth&#xa;Service" style="shape=umlLifeline;perimeter=lifelinePerimeter;whiteSpace=wrap;container=1;dropTarget=0;collapsible=0;recursiveResize=0;outlineConnect=0;portConstraint=eastwest;newEdgeStyle={&quot;curved&quot;:0,&quot;rounded&quot;:0};" parent="1" vertex="1">
          <mxGeometry x="567" y="-2200" width="100" height="322" as="geometry" />
        </mxCell>
        <mxCell id="Zxa0VbdAIg18inWHZpzh-9" value="" style="html=1;points=[[0,0,0,0,5],[0,1,0,0,-5],[1,0,0,0,5],[1,1,0,0,-5]];perimeter=orthogonalPerimeter;outlineConnect=0;targetShapes=umlLifeline;portConstraint=eastwest;newEdgeStyle={&quot;curved&quot;:0,&quot;rounded&quot;:0};" parent="Zxa0VbdAIg18inWHZpzh-8" vertex="1">
          <mxGeometry x="45" y="271" width="10" height="30" as="geometry" />
        </mxCell>
        <mxCell id="Zxa0VbdAIg18inWHZpzh-10" value="empTokenInit( String usrId )&#xa;EMP ACCESS TOKEN 체크 및 생성&#xa;" style="verticalAlign=bottom;startArrow=oval;startFill=1;endArrow=block;startSize=8;curved=0;rounded=0;" parent="1" edge="1">
          <mxGeometry width="60" relative="1" as="geometry">
            <mxPoint x="302" y="-1914" as="sourcePoint" />
            <mxPoint x="612.0000000000002" y="-1914" as="targetPoint" />
          </mxGeometry>
        </mxCell>
        <mxCell id="Zxa0VbdAIg18inWHZpzh-11" value="CommonMapper" style="shape=umlLifeline;perimeter=lifelinePerimeter;whiteSpace=wrap;container=1;dropTarget=0;collapsible=0;recursiveResize=0;outlineConnect=0;portConstraint=eastwest;newEdgeStyle={&quot;curved&quot;:0,&quot;rounded&quot;:0};" parent="1" vertex="1">
          <mxGeometry x="720" y="-2200" width="100" height="480" as="geometry" />
        </mxCell>
        <mxCell id="Zxa0VbdAIg18inWHZpzh-12" value="" style="html=1;points=[[0,0,0,0,5],[0,1,0,0,-5],[1,0,0,0,5],[1,1,0,0,-5]];perimeter=orthogonalPerimeter;outlineConnect=0;targetShapes=umlLifeline;portConstraint=eastwest;newEdgeStyle={&quot;curved&quot;:0,&quot;rounded&quot;:0};" parent="Zxa0VbdAIg18inWHZpzh-11" vertex="1">
          <mxGeometry x="45" y="400" width="10" height="70" as="geometry" />
        </mxCell>
        <mxCell id="Zxa0VbdAIg18inWHZpzh-13" value="JwtUtil" style="shape=umlLifeline;perimeter=lifelinePerimeter;whiteSpace=wrap;container=1;dropTarget=0;collapsible=0;recursiveResize=0;outlineConnect=0;portConstraint=eastwest;newEdgeStyle={&quot;curved&quot;:0,&quot;rounded&quot;:0};" parent="1" vertex="1">
          <mxGeometry x="397" y="-2200" width="100" height="392" as="geometry" />
        </mxCell>
        <mxCell id="Zxa0VbdAIg18inWHZpzh-14" value="" style="html=1;points=[[0,0,0,0,5],[0,1,0,0,-5],[1,0,0,0,5],[1,1,0,0,-5]];perimeter=orthogonalPerimeter;outlineConnect=0;targetShapes=umlLifeline;portConstraint=eastwest;newEdgeStyle={&quot;curved&quot;:0,&quot;rounded&quot;:0};" parent="Zxa0VbdAIg18inWHZpzh-13" vertex="1">
          <mxGeometry x="45" y="150" width="10" height="60" as="geometry" />
        </mxCell>
        <mxCell id="Zxa0VbdAIg18inWHZpzh-15" value="" style="html=1;points=[[0,0,0,0,5],[0,1,0,0,-5],[1,0,0,0,5],[1,1,0,0,-5]];perimeter=orthogonalPerimeter;outlineConnect=0;targetShapes=umlLifeline;portConstraint=eastwest;newEdgeStyle={&quot;curved&quot;:0,&quot;rounded&quot;:0};" parent="Zxa0VbdAIg18inWHZpzh-13" vertex="1">
          <mxGeometry x="45" y="320" width="10" height="60" as="geometry" />
        </mxCell>
        <mxCell id="Zxa0VbdAIg18inWHZpzh-16" value="createCommonHeader(String empUserNo, String countryCd)" style="verticalAlign=bottom;startArrow=oval;startFill=1;endArrow=block;startSize=8;curved=0;rounded=0;" parent="Zxa0VbdAIg18inWHZpzh-13" target="Zxa0VbdAIg18inWHZpzh-25" edge="1">
          <mxGeometry x="0.001" width="60" relative="1" as="geometry">
            <mxPoint x="-95" y="500" as="sourcePoint" />
            <mxPoint x="50" y="500" as="targetPoint" />
            <Array as="points">
              <mxPoint x="-15" y="500" />
            </Array>
            <mxPoint as="offset" />
          </mxGeometry>
        </mxCell>
        <mxCell id="Zxa0VbdAIg18inWHZpzh-17" value="Map&lt;String, String&gt; commonHeader" style="verticalAlign=bottom;endArrow=open;dashed=1;endSize=8;curved=0;rounded=0;" parent="Zxa0VbdAIg18inWHZpzh-13" source="Zxa0VbdAIg18inWHZpzh-25" edge="1">
          <mxGeometry relative="1" as="geometry">
            <mxPoint x="45" y="524" as="sourcePoint" />
            <mxPoint x="-95" y="524" as="targetPoint" />
            <Array as="points" />
          </mxGeometry>
        </mxCell>
        <mxCell id="Zxa0VbdAIg18inWHZpzh-18" value="extractUsrId()" style="html=1;verticalAlign=bottom;startArrow=oval;startFill=1;endArrow=block;startSize=8;curved=0;rounded=0;" parent="1" source="Zxa0VbdAIg18inWHZpzh-4" target="Zxa0VbdAIg18inWHZpzh-14" edge="1">
          <mxGeometry width="60" relative="1" as="geometry">
            <mxPoint x="347" y="-2020" as="sourcePoint" />
            <mxPoint x="407" y="-2020" as="targetPoint" />
            <Array as="points">
              <mxPoint x="377" y="-2040" />
            </Array>
          </mxGeometry>
        </mxCell>
        <mxCell id="Zxa0VbdAIg18inWHZpzh-19" value="String usrId" style="html=1;verticalAlign=bottom;endArrow=open;dashed=1;endSize=8;curved=0;rounded=0;" parent="1" edge="1">
          <mxGeometry relative="1" as="geometry">
            <mxPoint x="442.0000000000002" y="-2007" as="sourcePoint" />
            <mxPoint x="302" y="-2007" as="targetPoint" />
            <Array as="points" />
          </mxGeometry>
        </mxCell>
        <mxCell id="Zxa0VbdAIg18inWHZpzh-20" value="extractUsrId()" style="html=1;verticalAlign=bottom;startArrow=oval;startFill=1;endArrow=block;startSize=8;curved=0;rounded=0;" parent="1" source="Zxa0VbdAIg18inWHZpzh-4" target="Zxa0VbdAIg18inWHZpzh-15" edge="1">
          <mxGeometry width="60" relative="1" as="geometry">
            <mxPoint x="307" y="-1860" as="sourcePoint" />
            <mxPoint x="447" y="-1860" as="targetPoint" />
            <Array as="points">
              <mxPoint x="382" y="-1860" />
            </Array>
          </mxGeometry>
        </mxCell>
        <mxCell id="Zxa0VbdAIg18inWHZpzh-21" value="String usrId" style="html=1;verticalAlign=bottom;endArrow=open;dashed=1;endSize=8;curved=0;rounded=0;" parent="1" edge="1">
          <mxGeometry relative="1" as="geometry">
            <mxPoint x="442" y="-1836" as="sourcePoint" />
            <mxPoint x="302" y="-1836" as="targetPoint" />
            <Array as="points" />
          </mxGeometry>
        </mxCell>
        <mxCell id="Zxa0VbdAIg18inWHZpzh-22" value="selectUserEmpInfo( jwtUtil.extractUsrId() )" style="verticalAlign=bottom;startArrow=oval;startFill=1;endArrow=block;startSize=8;curved=0;rounded=0;" parent="1" target="Zxa0VbdAIg18inWHZpzh-12" edge="1">
          <mxGeometry width="60" relative="1" as="geometry">
            <mxPoint x="302" y="-1784" as="sourcePoint" />
            <mxPoint x="812" y="-1784" as="targetPoint" />
          </mxGeometry>
        </mxCell>
        <mxCell id="Zxa0VbdAIg18inWHZpzh-23" value="Map&lt;String, String&gt; usrEmpInfoMap" style="verticalAlign=bottom;endArrow=open;dashed=1;endSize=8;curved=0;rounded=0;" parent="1" source="Zxa0VbdAIg18inWHZpzh-12" edge="1">
          <mxGeometry relative="1" as="geometry">
            <mxPoint x="770" y="-1751" as="sourcePoint" />
            <mxPoint x="302" y="-1751" as="targetPoint" />
            <Array as="points" />
          </mxGeometry>
        </mxCell>
        <mxCell id="Zxa0VbdAIg18inWHZpzh-24" value="SimulatorUtil" style="shape=umlLifeline;perimeter=lifelinePerimeter;whiteSpace=wrap;container=1;dropTarget=0;collapsible=0;recursiveResize=0;outlineConnect=0;portConstraint=eastwest;newEdgeStyle={&quot;curved&quot;:0,&quot;rounded&quot;:0};" parent="1" vertex="1">
          <mxGeometry x="917" y="-2200" width="100" height="562" as="geometry" />
        </mxCell>
        <mxCell id="Zxa0VbdAIg18inWHZpzh-25" value="" style="html=1;points=[[0,0,0,0,5],[0,1,0,0,-5],[1,0,0,0,5],[1,1,0,0,-5]];perimeter=orthogonalPerimeter;outlineConnect=0;targetShapes=umlLifeline;portConstraint=eastwest;newEdgeStyle={&quot;curved&quot;:0,&quot;rounded&quot;:0};" parent="Zxa0VbdAIg18inWHZpzh-24" vertex="1">
          <mxGeometry x="45" y="480" width="10" height="60" as="geometry" />
        </mxCell>
        <mxCell id="Zxa0VbdAIg18inWHZpzh-26" value="SimulatorFeign" style="shape=umlLifeline;perimeter=lifelinePerimeter;whiteSpace=wrap;container=1;dropTarget=0;collapsible=0;recursiveResize=0;outlineConnect=0;portConstraint=eastwest;newEdgeStyle={&quot;curved&quot;:0,&quot;rounded&quot;:0};" parent="1" vertex="1">
          <mxGeometry x="1057" y="-2200" width="100" height="722" as="geometry" />
        </mxCell>
        <mxCell id="Zxa0VbdAIg18inWHZpzh-27" value="" style="html=1;points=[[0,0,0,0,5],[0,1,0,0,-5],[1,0,0,0,5],[1,1,0,0,-5]];perimeter=orthogonalPerimeter;outlineConnect=0;targetShapes=umlLifeline;portConstraint=eastwest;newEdgeStyle={&quot;curved&quot;:0,&quot;rounded&quot;:0};" parent="Zxa0VbdAIg18inWHZpzh-26" vertex="1">
          <mxGeometry x="45" y="640" width="10" height="60" as="geometry" />
        </mxCell>
        <mxCell id="Zxa0VbdAIg18inWHZpzh-28" value="connThinqConnections(@RequestHeader Map&lt;String, String&gt; header,  @RequestBody Map&lt;String, String&gt; param)" style="verticalAlign=bottom;startArrow=oval;startFill=1;endArrow=block;startSize=8;curved=0;rounded=0;" parent="1" source="Zxa0VbdAIg18inWHZpzh-4" edge="1">
          <mxGeometry width="60" relative="1" as="geometry">
            <mxPoint x="302.0000000000002" y="-1547" as="sourcePoint" />
            <mxPoint x="1102" y="-1547" as="targetPoint" />
          </mxGeometry>
        </mxCell>
        <mxCell id="Zxa0VbdAIg18inWHZpzh-29" value="Map&lt;String, Object&gt; resultMap" style="verticalAlign=bottom;endArrow=open;dashed=1;endSize=8;curved=0;rounded=0;" parent="1" edge="1">
          <mxGeometry relative="1" as="geometry">
            <mxPoint x="1102" y="-1520" as="sourcePoint" />
            <mxPoint x="302.0000000000002" y="-1520" as="targetPoint" />
            <Array as="points" />
          </mxGeometry>
        </mxCell>
        <mxCell id="Zxa0VbdAIg18inWHZpzh-30" value="resultMap" style="verticalAlign=bottom;endArrow=open;dashed=1;endSize=8;curved=0;rounded=0;" parent="1" edge="1">
          <mxGeometry relative="1" as="geometry">
            <mxPoint x="292" y="-1481" as="sourcePoint" />
            <mxPoint x="95" y="-1481" as="targetPoint" />
            <Array as="points" />
          </mxGeometry>
        </mxCell>
        <mxCell id="Zxa0VbdAIg18inWHZpzh-31" value="&lt;h1 style=&quot;margin-top: 0px;&quot;&gt;Simulator Common API Call&lt;/h1&gt;&lt;div&gt;기기 연결 시퀀스&lt;/div&gt;&lt;div&gt;&lt;span style=&quot;font-family: Consolas; font-size: 10pt; text-align: center; background-color: initial;&quot;&gt;/thinq/connections&lt;/span&gt;&lt;/div&gt;" style="text;html=1;whiteSpace=wrap;overflow=hidden;rounded=0;" parent="1" vertex="1">
          <mxGeometry x="40" y="-2320" width="550" height="92" as="geometry" />
        </mxCell>
        <mxCell id="Zxa0VbdAIg18inWHZpzh-32" value="&lt;h1 style=&quot;margin-top: 0px;&quot;&gt;공통 헤더 처리&lt;/h1&gt;" style="text;html=1;whiteSpace=wrap;overflow=hidden;rounded=0;spacingTop=0;spacingLeft=0;labelBorderColor=none;strokeColor=#0000FF;dashed=1;" parent="1" vertex="1">
          <mxGeometry x="207" y="-2258" width="833" height="620" as="geometry" />
        </mxCell>
      </root>
    </mxGraphModel>
  </diagram>
  <diagram id="aeZETllzK6n4tL1VMBJt" name="EMP TOKEN">
    <mxGraphModel dx="1434" dy="3084" grid="1" gridSize="10" guides="1" tooltips="1" connect="1" arrows="1" fold="1" page="1" pageScale="1" pageWidth="827" pageHeight="1169" math="0" shadow="0">
      <root>
        <mxCell id="0" />
        <mxCell id="1" parent="0" />
        <mxCell id="wqpps78j9E-CDmNg7GDN-8" value="ApiConnEmpOAuth&#xa;Service" style="shape=umlLifeline;perimeter=lifelinePerimeter;whiteSpace=wrap;container=1;dropTarget=0;collapsible=0;recursiveResize=0;outlineConnect=0;portConstraint=eastwest;newEdgeStyle={&quot;curved&quot;:0,&quot;rounded&quot;:0};" parent="1" vertex="1">
          <mxGeometry x="40" y="-2200" width="100" height="400" as="geometry" />
        </mxCell>
        <mxCell id="wqpps78j9E-CDmNg7GDN-9" value="" style="html=1;points=[[0,0,0,0,5],[0,1,0,0,-5],[1,0,0,0,5],[1,1,0,0,-5]];perimeter=orthogonalPerimeter;outlineConnect=0;targetShapes=umlLifeline;portConstraint=eastwest;newEdgeStyle={&quot;curved&quot;:0,&quot;rounded&quot;:0};" parent="wqpps78j9E-CDmNg7GDN-8" vertex="1">
          <mxGeometry x="45" y="80" width="10" height="300" as="geometry" />
        </mxCell>
        <mxCell id="G0sA44Nci8wBkpBlyyJQ-3" value="" style="html=1;points=[[0,0,0,0,5],[0,1,0,0,-5],[1,0,0,0,5],[1,1,0,0,-5]];perimeter=orthogonalPerimeter;outlineConnect=0;targetShapes=umlLifeline;portConstraint=eastwest;newEdgeStyle={&quot;curved&quot;:0,&quot;rounded&quot;:0};" parent="wqpps78j9E-CDmNg7GDN-8" vertex="1">
          <mxGeometry x="55" y="190" width="10" height="40" as="geometry" />
        </mxCell>
        <mxCell id="G0sA44Nci8wBkpBlyyJQ-4" value="getOAuthRequestTime(String)" style="html=1;align=left;spacingLeft=2;endArrow=block;rounded=0;edgeStyle=orthogonalEdgeStyle;curved=0;rounded=0;" parent="wqpps78j9E-CDmNg7GDN-8" target="G0sA44Nci8wBkpBlyyJQ-3" edge="1">
          <mxGeometry relative="1" as="geometry">
            <mxPoint x="60" y="170" as="sourcePoint" />
            <Array as="points">
              <mxPoint x="90" y="200" />
            </Array>
          </mxGeometry>
        </mxCell>
        <mxCell id="G0sA44Nci8wBkpBlyyJQ-5" value="" style="html=1;points=[[0,0,0,0,5],[0,1,0,0,-5],[1,0,0,0,5],[1,1,0,0,-5]];perimeter=orthogonalPerimeter;outlineConnect=0;targetShapes=umlLifeline;portConstraint=eastwest;newEdgeStyle={&quot;curved&quot;:0,&quot;rounded&quot;:0};" parent="wqpps78j9E-CDmNg7GDN-8" vertex="1">
          <mxGeometry x="55" y="260" width="10" height="40" as="geometry" />
        </mxCell>
        <mxCell id="G0sA44Nci8wBkpBlyyJQ-6" value="setOAuthUpdateToken(String, String)" style="html=1;align=left;spacingLeft=2;endArrow=block;rounded=0;edgeStyle=orthogonalEdgeStyle;curved=0;rounded=0;" parent="wqpps78j9E-CDmNg7GDN-8" target="G0sA44Nci8wBkpBlyyJQ-5" edge="1">
          <mxGeometry relative="1" as="geometry">
            <mxPoint x="60" y="240" as="sourcePoint" />
            <Array as="points">
              <mxPoint x="90" y="270" />
            </Array>
          </mxGeometry>
        </mxCell>
        <mxCell id="wqpps78j9E-CDmNg7GDN-11" value="CommonMapper" style="shape=umlLifeline;perimeter=lifelinePerimeter;whiteSpace=wrap;container=1;dropTarget=0;collapsible=0;recursiveResize=0;outlineConnect=0;portConstraint=eastwest;newEdgeStyle={&quot;curved&quot;:0,&quot;rounded&quot;:0};" parent="1" vertex="1">
          <mxGeometry x="280" y="-2200" width="100" height="400" as="geometry" />
        </mxCell>
        <mxCell id="wqpps78j9E-CDmNg7GDN-12" value="" style="html=1;points=[[0,0,0,0,5],[0,1,0,0,-5],[1,0,0,0,5],[1,1,0,0,-5]];perimeter=orthogonalPerimeter;outlineConnect=0;targetShapes=umlLifeline;portConstraint=eastwest;newEdgeStyle={&quot;curved&quot;:0,&quot;rounded&quot;:0};" parent="wqpps78j9E-CDmNg7GDN-11" vertex="1">
          <mxGeometry x="45" y="80" width="10" height="70" as="geometry" />
        </mxCell>
        <mxCell id="G0sA44Nci8wBkpBlyyJQ-7" value="" style="html=1;points=[[0,0,0,0,5],[0,1,0,0,-5],[1,0,0,0,5],[1,1,0,0,-5]];perimeter=orthogonalPerimeter;outlineConnect=0;targetShapes=umlLifeline;portConstraint=eastwest;newEdgeStyle={&quot;curved&quot;:0,&quot;rounded&quot;:0};" parent="wqpps78j9E-CDmNg7GDN-11" vertex="1">
          <mxGeometry x="45" y="320" width="10" height="40" as="geometry" />
        </mxCell>
        <mxCell id="wqpps78j9E-CDmNg7GDN-31" value="&lt;h1 style=&quot;margin-top: 0px;&quot;&gt;&lt;span style=&quot;font-family: Consolas; white-space: pre; background-color: rgb(255, 255, 255);&quot;&gt;&lt;font style=&quot;font-size: 24px;&quot;&gt;EMP ACCESS TOKEN 체크 및 생성&lt;/font&gt;&lt;/span&gt;&lt;/h1&gt;&lt;div style=&quot;font-size: 10px;&quot;&gt;1. 토큰 검증&lt;/div&gt;&lt;div style=&quot;font-size: 10px;&quot;&gt;2. 토큰 갱신(api)&lt;/div&gt;&lt;div style=&quot;font-size: 10px;&quot;&gt;3. 토큰 갱신(db update)&lt;/div&gt;" style="text;html=1;whiteSpace=wrap;overflow=hidden;rounded=0;" parent="1" vertex="1">
          <mxGeometry x="40" y="-2320" width="550" height="92" as="geometry" />
        </mxCell>
        <mxCell id="G0sA44Nci8wBkpBlyyJQ-1" value="selectUserEmpInfo( jwtUtil.extractUsrId() )" style="verticalAlign=bottom;startArrow=oval;startFill=1;endArrow=block;startSize=8;curved=0;rounded=0;" parent="1" target="wqpps78j9E-CDmNg7GDN-12" edge="1">
          <mxGeometry width="60" relative="1" as="geometry">
            <mxPoint x="95" y="-2099" as="sourcePoint" />
            <mxPoint x="365" y="-2099" as="targetPoint" />
          </mxGeometry>
        </mxCell>
        <mxCell id="G0sA44Nci8wBkpBlyyJQ-2" value="Map&lt;String, String&gt; usrEmpInfoMap" style="verticalAlign=bottom;endArrow=open;dashed=1;endSize=8;curved=0;rounded=0;" parent="1" source="wqpps78j9E-CDmNg7GDN-12" edge="1">
          <mxGeometry relative="1" as="geometry">
            <mxPoint x="365" y="-2057" as="sourcePoint" />
            <mxPoint x="95" y="-2057" as="targetPoint" />
            <Array as="points" />
          </mxGeometry>
        </mxCell>
        <mxCell id="G0sA44Nci8wBkpBlyyJQ-8" value="selectUserEmpInfo( jwtUtil.extractUsrId() )" style="verticalAlign=bottom;startArrow=oval;startFill=1;endArrow=block;startSize=8;curved=0;rounded=0;" parent="1" edge="1">
          <mxGeometry width="60" relative="1" as="geometry">
            <mxPoint x="95" y="-1860" as="sourcePoint" />
            <mxPoint x="325" y="-1860" as="targetPoint" />
          </mxGeometry>
        </mxCell>
        <mxCell id="G0sA44Nci8wBkpBlyyJQ-9" value="사용자" style="swimlane;fontStyle=0;childLayout=stackLayout;horizontal=1;startSize=26;fillColor=none;horizontalStack=0;resizeParent=1;resizeParentMax=0;resizeLast=0;collapsible=1;marginBottom=0;whiteSpace=wrap;" parent="1" vertex="1">
          <mxGeometry x="440" y="-2160" width="160" height="130" as="geometry" />
        </mxCell>
        <mxCell id="G0sA44Nci8wBkpBlyyJQ-10" value="+ mbrNo: String" style="text;strokeColor=none;fillColor=none;align=left;verticalAlign=top;spacingLeft=4;spacingRight=4;overflow=hidden;rotatable=0;points=[[0,0.5],[1,0.5]];portConstraint=eastwest;whiteSpace=wrap;" parent="G0sA44Nci8wBkpBlyyJQ-9" vertex="1">
          <mxGeometry y="26" width="160" height="26" as="geometry" />
        </mxCell>
        <mxCell id="G0sA44Nci8wBkpBlyyJQ-11" value="+ accessToken: String" style="text;strokeColor=none;fillColor=none;align=left;verticalAlign=top;spacingLeft=4;spacingRight=4;overflow=hidden;rotatable=0;points=[[0,0.5],[1,0.5]];portConstraint=eastwest;whiteSpace=wrap;" parent="G0sA44Nci8wBkpBlyyJQ-9" vertex="1">
          <mxGeometry y="52" width="160" height="26" as="geometry" />
        </mxCell>
        <mxCell id="G0sA44Nci8wBkpBlyyJQ-12" value="+ refreshToken: String" style="text;strokeColor=none;fillColor=none;align=left;verticalAlign=top;spacingLeft=4;spacingRight=4;overflow=hidden;rotatable=0;points=[[0,0.5],[1,0.5]];portConstraint=eastwest;whiteSpace=wrap;" parent="G0sA44Nci8wBkpBlyyJQ-9" vertex="1">
          <mxGeometry y="78" width="160" height="26" as="geometry" />
        </mxCell>
        <mxCell id="G0sA44Nci8wBkpBlyyJQ-17" value="+ oauthServerUrl: String" style="text;strokeColor=none;fillColor=none;align=left;verticalAlign=top;spacingLeft=4;spacingRight=4;overflow=hidden;rotatable=0;points=[[0,0.5],[1,0.5]];portConstraint=eastwest;whiteSpace=wrap;" parent="G0sA44Nci8wBkpBlyyJQ-9" vertex="1">
          <mxGeometry y="104" width="160" height="26" as="geometry" />
        </mxCell>
        <mxCell id="G0sA44Nci8wBkpBlyyJQ-13" value="토큰" style="swimlane;fontStyle=0;childLayout=stackLayout;horizontal=1;startSize=26;fillColor=none;horizontalStack=0;resizeParent=1;resizeParentMax=0;resizeLast=0;collapsible=1;marginBottom=0;whiteSpace=wrap;" parent="1" vertex="1">
          <mxGeometry x="440" y="-2000" width="160" height="104" as="geometry" />
        </mxCell>
        <mxCell id="G0sA44Nci8wBkpBlyyJQ-14" value="+ isSuccess: String" style="text;strokeColor=none;fillColor=none;align=left;verticalAlign=top;spacingLeft=4;spacingRight=4;overflow=hidden;rotatable=0;points=[[0,0.5],[1,0.5]];portConstraint=eastwest;whiteSpace=wrap;" parent="G0sA44Nci8wBkpBlyyJQ-13" vertex="1">
          <mxGeometry y="26" width="160" height="26" as="geometry" />
        </mxCell>
        <mxCell id="G0sA44Nci8wBkpBlyyJQ-15" value="+ accessToken: String" style="text;strokeColor=none;fillColor=none;align=left;verticalAlign=top;spacingLeft=4;spacingRight=4;overflow=hidden;rotatable=0;points=[[0,0.5],[1,0.5]];portConstraint=eastwest;whiteSpace=wrap;" parent="G0sA44Nci8wBkpBlyyJQ-13" vertex="1">
          <mxGeometry y="52" width="160" height="26" as="geometry" />
        </mxCell>
        <mxCell id="G0sA44Nci8wBkpBlyyJQ-16" value="+ field: type" style="text;strokeColor=none;fillColor=none;align=left;verticalAlign=top;spacingLeft=4;spacingRight=4;overflow=hidden;rotatable=0;points=[[0,0.5],[1,0.5]];portConstraint=eastwest;whiteSpace=wrap;html=1;" parent="G0sA44Nci8wBkpBlyyJQ-13" vertex="1">
          <mxGeometry y="78" width="160" height="26" as="geometry" />
        </mxCell>
      </root>
    </mxGraphModel>
  </diagram>
  <diagram id="66jogXPUeLw2uXsOjbfE" name="로그인">
    <mxGraphModel dx="1302" dy="871" grid="1" gridSize="10" guides="1" tooltips="1" connect="1" arrows="1" fold="1" page="1" pageScale="1" pageWidth="827" pageHeight="1169" math="0" shadow="0">
      <root>
        <mxCell id="0" />
        <mxCell id="1" parent="0" />
        <mxCell id="LGBW__geyH-p6XTnPbDa-2" value="LMP LOGIN" style="shape=umlLifeline;perimeter=lifelinePerimeter;whiteSpace=wrap;html=1;container=1;dropTarget=0;collapsible=0;recursiveResize=0;outlineConnect=0;portConstraint=eastwest;newEdgeStyle={&quot;edgeStyle&quot;:&quot;elbowEdgeStyle&quot;,&quot;elbow&quot;:&quot;vertical&quot;,&quot;curved&quot;:0,&quot;rounded&quot;:0};" parent="1" vertex="1">
          <mxGeometry x="120" y="40" width="100" height="240" as="geometry" />
        </mxCell>
        <mxCell id="LGBW__geyH-p6XTnPbDa-12" value="" style="html=1;points=[[0,0,0,0,5],[0,1,0,0,-5],[1,0,0,0,5],[1,1,0,0,-5]];perimeter=orthogonalPerimeter;outlineConnect=0;targetShapes=umlLifeline;portConstraint=eastwest;newEdgeStyle={&quot;curved&quot;:0,&quot;rounded&quot;:0};" parent="LGBW__geyH-p6XTnPbDa-2" vertex="1">
          <mxGeometry x="45" y="80" width="10" height="120" as="geometry" />
        </mxCell>
        <mxCell id="LGBW__geyH-p6XTnPbDa-3" value="FRONT&lt;div&gt;/SsoCallBack&lt;/div&gt;" style="shape=umlLifeline;perimeter=lifelinePerimeter;whiteSpace=wrap;html=1;container=1;dropTarget=0;collapsible=0;recursiveResize=0;outlineConnect=0;portConstraint=eastwest;newEdgeStyle={&quot;edgeStyle&quot;:&quot;elbowEdgeStyle&quot;,&quot;elbow&quot;:&quot;vertical&quot;,&quot;curved&quot;:0,&quot;rounded&quot;:0};" parent="1" vertex="1">
          <mxGeometry x="320" y="40" width="100" height="2920" as="geometry" />
        </mxCell>
        <mxCell id="LGBW__geyH-p6XTnPbDa-13" value="" style="html=1;points=[[0,0,0,0,5],[0,1,0,0,-5],[1,0,0,0,5],[1,1,0,0,-5]];perimeter=orthogonalPerimeter;outlineConnect=0;targetShapes=umlLifeline;portConstraint=eastwest;newEdgeStyle={&quot;curved&quot;:0,&quot;rounded&quot;:0};" parent="LGBW__geyH-p6XTnPbDa-3" vertex="1">
          <mxGeometry x="45" y="120" width="10" height="2760" as="geometry" />
        </mxCell>
        <mxCell id="LGBW__geyH-p6XTnPbDa-14" value="" style="html=1;points=[[0,0,0,0,5],[0,1,0,0,-5],[1,0,0,0,5],[1,1,0,0,-5]];perimeter=orthogonalPerimeter;outlineConnect=0;targetShapes=umlLifeline;portConstraint=eastwest;newEdgeStyle={&quot;curved&quot;:0,&quot;rounded&quot;:0};" parent="LGBW__geyH-p6XTnPbDa-3" vertex="1">
          <mxGeometry x="40" y="180" width="20" height="40" as="geometry" />
        </mxCell>
        <mxCell id="LGBW__geyH-p6XTnPbDa-15" value="&lt;p&gt;로그인 위조방지 검사&lt;/p&gt;" style="html=1;align=left;spacingLeft=2;endArrow=block;rounded=0;edgeStyle=orthogonalEdgeStyle;curved=0;rounded=0;" parent="LGBW__geyH-p6XTnPbDa-3" source="LGBW__geyH-p6XTnPbDa-13" target="LGBW__geyH-p6XTnPbDa-14" edge="1">
          <mxGeometry relative="1" as="geometry">
            <mxPoint x="50" y="160" as="sourcePoint" />
            <Array as="points">
              <mxPoint x="80" y="170" />
              <mxPoint x="80" y="200" />
            </Array>
          </mxGeometry>
        </mxCell>
        <mxCell id="LGBW__geyH-p6XTnPbDa-9" style="edgeStyle=orthogonalEdgeStyle;rounded=0;orthogonalLoop=1;jettySize=auto;html=1;" parent="1" source="LGBW__geyH-p6XTnPbDa-50" target="LGBW__geyH-p6XTnPbDa-12" edge="1">
          <mxGeometry relative="1" as="geometry">
            <mxPoint x="40" y="70" as="sourcePoint" />
            <Array as="points">
              <mxPoint x="100" y="140" />
              <mxPoint x="100" y="140" />
            </Array>
          </mxGeometry>
        </mxCell>
        <mxCell id="LGBW__geyH-p6XTnPbDa-10" value="https://qa-kr.account.lge.com/lgacc/service/v1/signin" style="edgeLabel;html=1;align=center;verticalAlign=middle;resizable=0;points=[];" parent="LGBW__geyH-p6XTnPbDa-9" vertex="1" connectable="0">
          <mxGeometry x="0.491" y="-2" relative="1" as="geometry">
            <mxPoint x="34" y="-22" as="offset" />
          </mxGeometry>
        </mxCell>
        <mxCell id="LGBW__geyH-p6XTnPbDa-11" value="/SsoCallBack" style="html=1;verticalAlign=bottom;startArrow=oval;startFill=1;endArrow=block;startSize=8;curved=0;rounded=0;" parent="1" source="LGBW__geyH-p6XTnPbDa-12" target="LGBW__geyH-p6XTnPbDa-13" edge="1">
          <mxGeometry width="60" relative="1" as="geometry">
            <mxPoint x="169.5" y="215" as="sourcePoint" />
            <mxPoint x="369.5" y="215" as="targetPoint" />
            <Array as="points">
              <mxPoint x="270" y="180" />
            </Array>
          </mxGeometry>
        </mxCell>
        <mxCell id="LGBW__geyH-p6XTnPbDa-16" value="LoginController" style="shape=umlLifeline;perimeter=lifelinePerimeter;whiteSpace=wrap;html=1;container=1;dropTarget=0;collapsible=0;recursiveResize=0;outlineConnect=0;portConstraint=eastwest;newEdgeStyle={&quot;curved&quot;:0,&quot;rounded&quot;:0};" parent="1" vertex="1">
          <mxGeometry x="520" y="40" width="100" height="2920" as="geometry" />
        </mxCell>
        <mxCell id="LGBW__geyH-p6XTnPbDa-20" value="" style="html=1;points=[[0,0,0,0,5],[0,1,0,0,-5],[1,0,0,0,5],[1,1,0,0,-5]];perimeter=orthogonalPerimeter;outlineConnect=0;targetShapes=umlLifeline;portConstraint=eastwest;newEdgeStyle={&quot;curved&quot;:0,&quot;rounded&quot;:0};" parent="LGBW__geyH-p6XTnPbDa-16" vertex="1">
          <mxGeometry x="45" y="240" width="10" height="2640" as="geometry" />
        </mxCell>
        <mxCell id="LGBW__geyH-p6XTnPbDa-21" value="loginComplete" style="html=1;verticalAlign=bottom;endArrow=block;curved=0;rounded=0;entryX=0;entryY=0;entryDx=0;entryDy=5;" parent="1" source="LGBW__geyH-p6XTnPbDa-13" target="LGBW__geyH-p6XTnPbDa-20" edge="1">
          <mxGeometry relative="1" as="geometry">
            <mxPoint x="470" y="315" as="sourcePoint" />
          </mxGeometry>
        </mxCell>
        <mxCell id="LGBW__geyH-p6XTnPbDa-22" value="AuthDto.SignInResult" style="html=1;verticalAlign=bottom;endArrow=open;dashed=1;endSize=8;curved=0;rounded=0;exitX=0;exitY=1;exitDx=0;exitDy=-5;" parent="1" source="LGBW__geyH-p6XTnPbDa-20" target="LGBW__geyH-p6XTnPbDa-13" edge="1">
          <mxGeometry relative="1" as="geometry">
            <mxPoint x="470" y="385" as="targetPoint" />
          </mxGeometry>
        </mxCell>
        <mxCell id="LGBW__geyH-p6XTnPbDa-23" value="&lt;font face=&quot;Consolas&quot;&gt;&lt;span style=&quot;white-space: pre;&quot;&gt;LoginService&lt;/span&gt;&lt;/font&gt;" style="shape=umlLifeline;perimeter=lifelinePerimeter;whiteSpace=wrap;html=1;container=1;dropTarget=0;collapsible=0;recursiveResize=0;outlineConnect=0;portConstraint=eastwest;newEdgeStyle={&quot;curved&quot;:0,&quot;rounded&quot;:0};" parent="1" vertex="1">
          <mxGeometry x="660" y="40" width="120" height="2920" as="geometry" />
        </mxCell>
        <mxCell id="LGBW__geyH-p6XTnPbDa-25" value="" style="html=1;points=[[0,0,0,0,5],[0,1,0,0,-5],[1,0,0,0,5],[1,1,0,0,-5]];perimeter=orthogonalPerimeter;outlineConnect=0;targetShapes=umlLifeline;portConstraint=eastwest;newEdgeStyle={&quot;curved&quot;:0,&quot;rounded&quot;:0};" parent="LGBW__geyH-p6XTnPbDa-23" vertex="1">
          <mxGeometry x="55" y="300" width="10" height="2580" as="geometry" />
        </mxCell>
        <mxCell id="LGBW__geyH-p6XTnPbDa-26" value="loginComplete" style="html=1;verticalAlign=bottom;endArrow=block;curved=0;rounded=0;entryX=0;entryY=0;entryDx=0;entryDy=5;" parent="1" source="LGBW__geyH-p6XTnPbDa-20" target="LGBW__geyH-p6XTnPbDa-25" edge="1">
          <mxGeometry relative="1" as="geometry">
            <mxPoint x="590" y="345" as="sourcePoint" />
          </mxGeometry>
        </mxCell>
        <mxCell id="LGBW__geyH-p6XTnPbDa-27" value="AuthDto.SignInResult" style="html=1;verticalAlign=bottom;endArrow=open;dashed=1;endSize=8;curved=0;rounded=0;exitX=0;exitY=1;exitDx=0;exitDy=-5;" parent="1" source="LGBW__geyH-p6XTnPbDa-25" target="LGBW__geyH-p6XTnPbDa-20" edge="1">
          <mxGeometry relative="1" as="geometry">
            <mxPoint x="590" y="415" as="targetPoint" />
          </mxGeometry>
        </mxCell>
        <mxCell id="LGBW__geyH-p6XTnPbDa-32" value="ApiConnEmpOAuthService" style="shape=umlLifeline;perimeter=lifelinePerimeter;whiteSpace=wrap;html=1;container=1;dropTarget=0;collapsible=0;recursiveResize=0;outlineConnect=0;portConstraint=eastwest;newEdgeStyle={&quot;curved&quot;:0,&quot;rounded&quot;:0};" parent="1" vertex="1">
          <mxGeometry x="840" y="40" width="150" height="1760" as="geometry" />
        </mxCell>
        <mxCell id="LGBW__geyH-p6XTnPbDa-33" value="" style="html=1;points=[[0,0,0,0,5],[0,1,0,0,-5],[1,0,0,0,5],[1,1,0,0,-5]];perimeter=orthogonalPerimeter;outlineConnect=0;targetShapes=umlLifeline;portConstraint=eastwest;newEdgeStyle={&quot;curved&quot;:0,&quot;rounded&quot;:0};" parent="LGBW__geyH-p6XTnPbDa-32" vertex="1">
          <mxGeometry x="70" y="480" width="10" height="660" as="geometry" />
        </mxCell>
        <mxCell id="LGBW__geyH-p6XTnPbDa-39" value="" style="html=1;points=[[0,0,0,0,5],[0,1,0,0,-5],[1,0,0,0,5],[1,1,0,0,-5]];perimeter=orthogonalPerimeter;outlineConnect=0;targetShapes=umlLifeline;portConstraint=eastwest;newEdgeStyle={&quot;curved&quot;:0,&quot;rounded&quot;:0};" parent="LGBW__geyH-p6XTnPbDa-32" vertex="1">
          <mxGeometry x="65" y="610" width="20" height="140" as="geometry" />
        </mxCell>
        <mxCell id="LGBW__geyH-p6XTnPbDa-40" value="getOAuthRequestTime" style="html=1;align=left;spacingLeft=2;endArrow=block;rounded=0;edgeStyle=orthogonalEdgeStyle;curved=0;rounded=0;" parent="LGBW__geyH-p6XTnPbDa-32" source="LGBW__geyH-p6XTnPbDa-33" target="LGBW__geyH-p6XTnPbDa-39" edge="1">
          <mxGeometry relative="1" as="geometry">
            <mxPoint x="120" y="600" as="sourcePoint" />
            <Array as="points">
              <mxPoint x="140" y="600" />
              <mxPoint x="140" y="640" />
            </Array>
            <mxPoint x="60" y="579.97" as="targetPoint" />
          </mxGeometry>
        </mxCell>
        <mxCell id="AXu_qQL4ZWgnv2_Lezh4-7" value="getHeader()" style="html=1;align=left;spacingLeft=2;endArrow=block;rounded=0;edgeStyle=orthogonalEdgeStyle;curved=0;rounded=0;" edge="1" target="AXu_qQL4ZWgnv2_Lezh4-6" parent="LGBW__geyH-p6XTnPbDa-32" source="LGBW__geyH-p6XTnPbDa-33">
          <mxGeometry relative="1" as="geometry">
            <mxPoint x="115.00000000000023" y="910.0044827586207" as="sourcePoint" />
            <Array as="points">
              <mxPoint x="140" y="910" />
              <mxPoint x="140" y="950" />
            </Array>
            <mxPoint x="120.00000000000023" y="950.0044827586207" as="targetPoint" />
          </mxGeometry>
        </mxCell>
        <mxCell id="AXu_qQL4ZWgnv2_Lezh4-6" value="" style="html=1;points=[[0,0,0,0,5],[0,1,0,0,-5],[1,0,0,0,5],[1,1,0,0,-5]];perimeter=orthogonalPerimeter;outlineConnect=0;targetShapes=umlLifeline;portConstraint=eastwest;newEdgeStyle={&quot;curved&quot;:0,&quot;rounded&quot;:0};" vertex="1" parent="LGBW__geyH-p6XTnPbDa-32">
          <mxGeometry x="65" y="935" width="20" height="130" as="geometry" />
        </mxCell>
        <mxCell id="AXu_qQL4ZWgnv2_Lezh4-17" value="" style="html=1;points=[[0,0,0,0,5],[0,1,0,0,-5],[1,0,0,0,5],[1,1,0,0,-5]];perimeter=orthogonalPerimeter;outlineConnect=0;targetShapes=umlLifeline;portConstraint=eastwest;newEdgeStyle={&quot;curved&quot;:0,&quot;rounded&quot;:0};" vertex="1" parent="LGBW__geyH-p6XTnPbDa-32">
          <mxGeometry x="70" y="1180" width="10" height="570" as="geometry" />
        </mxCell>
        <mxCell id="AXu_qQL4ZWgnv2_Lezh4-21" value="" style="html=1;points=[[0,0,0,0,5],[0,1,0,0,-5],[1,0,0,0,5],[1,1,0,0,-5]];perimeter=orthogonalPerimeter;outlineConnect=0;targetShapes=umlLifeline;portConstraint=eastwest;newEdgeStyle={&quot;curved&quot;:0,&quot;rounded&quot;:0};" vertex="1" parent="LGBW__geyH-p6XTnPbDa-32">
          <mxGeometry x="65" y="1259.97" width="20" height="140" as="geometry" />
        </mxCell>
        <mxCell id="AXu_qQL4ZWgnv2_Lezh4-22" value="getOAuthRequestTime" style="html=1;align=left;spacingLeft=2;endArrow=block;rounded=0;edgeStyle=orthogonalEdgeStyle;curved=0;rounded=0;" edge="1" target="AXu_qQL4ZWgnv2_Lezh4-21" parent="LGBW__geyH-p6XTnPbDa-32" source="AXu_qQL4ZWgnv2_Lezh4-17">
          <mxGeometry relative="1" as="geometry">
            <mxPoint x="115" y="1240" as="sourcePoint" />
            <Array as="points">
              <mxPoint x="100" y="1240" />
              <mxPoint x="100" y="1280" />
            </Array>
            <mxPoint x="60" y="1219.97" as="targetPoint" />
          </mxGeometry>
        </mxCell>
        <mxCell id="AXu_qQL4ZWgnv2_Lezh4-23" value="" style="html=1;points=[[0,0,0,0,5],[0,1,0,0,-5],[1,0,0,0,5],[1,1,0,0,-5]];perimeter=orthogonalPerimeter;outlineConnect=0;targetShapes=umlLifeline;portConstraint=eastwest;newEdgeStyle={&quot;curved&quot;:0,&quot;rounded&quot;:0};" vertex="1" parent="LGBW__geyH-p6XTnPbDa-32">
          <mxGeometry x="285" y="1299.97" width="10" height="80" as="geometry" />
        </mxCell>
        <mxCell id="AXu_qQL4ZWgnv2_Lezh4-25" value="LMP 서버 시간 요청" style="shape=umlFrame;whiteSpace=wrap;html=1;pointerEvents=0;width=123;height=20;fillColor=#60a917;fontColor=#ffffff;strokeColor=#2D7600;align=left;" vertex="1" parent="LGBW__geyH-p6XTnPbDa-32">
          <mxGeometry x="40" y="1200" width="440" height="220" as="geometry" />
        </mxCell>
        <mxCell id="AXu_qQL4ZWgnv2_Lezh4-28" value="getDate" style="html=1;verticalAlign=bottom;endArrow=block;curved=0;rounded=0;entryX=0;entryY=0;entryDx=0;entryDy=5;" edge="1" source="AXu_qQL4ZWgnv2_Lezh4-21" target="AXu_qQL4ZWgnv2_Lezh4-23" parent="LGBW__geyH-p6XTnPbDa-32">
          <mxGeometry relative="1" as="geometry">
            <mxPoint x="60" y="1324.97" as="sourcePoint" />
          </mxGeometry>
        </mxCell>
        <mxCell id="AXu_qQL4ZWgnv2_Lezh4-29" value="국가별 서버 시간" style="html=1;verticalAlign=bottom;endArrow=open;dashed=1;endSize=8;curved=0;rounded=0;exitX=0;exitY=1;exitDx=0;exitDy=-5;" edge="1" source="AXu_qQL4ZWgnv2_Lezh4-23" target="AXu_qQL4ZWgnv2_Lezh4-21" parent="LGBW__geyH-p6XTnPbDa-32">
          <mxGeometry relative="1" as="geometry">
            <mxPoint x="190" y="1334.97" as="targetPoint" />
          </mxGeometry>
        </mxCell>
        <mxCell id="AXu_qQL4ZWgnv2_Lezh4-34" value="" style="html=1;points=[[0,0,0,0,5],[0,1,0,0,-5],[1,0,0,0,5],[1,1,0,0,-5]];perimeter=orthogonalPerimeter;outlineConnect=0;targetShapes=umlLifeline;portConstraint=eastwest;newEdgeStyle={&quot;curved&quot;:0,&quot;rounded&quot;:0};" vertex="1" parent="LGBW__geyH-p6XTnPbDa-32">
          <mxGeometry x="65" y="1575" width="20" height="130" as="geometry" />
        </mxCell>
        <mxCell id="AXu_qQL4ZWgnv2_Lezh4-33" value="getHeader()" style="html=1;align=left;spacingLeft=2;endArrow=block;rounded=0;edgeStyle=orthogonalEdgeStyle;curved=0;rounded=0;" edge="1" parent="LGBW__geyH-p6XTnPbDa-32" source="AXu_qQL4ZWgnv2_Lezh4-17" target="AXu_qQL4ZWgnv2_Lezh4-34">
          <mxGeometry relative="1" as="geometry">
            <mxPoint x="115.00000000000023" y="1550.0044827586207" as="sourcePoint" />
            <Array as="points">
              <mxPoint x="100" y="1550" />
              <mxPoint x="100" y="1590" />
            </Array>
            <mxPoint x="120.00000000000023" y="1590.0044827586207" as="targetPoint" />
          </mxGeometry>
        </mxCell>
        <mxCell id="LGBW__geyH-p6XTnPbDa-34" value="setOAuthRequestToken" style="html=1;verticalAlign=bottom;endArrow=block;curved=0;rounded=0;" parent="1" source="LGBW__geyH-p6XTnPbDa-25" target="LGBW__geyH-p6XTnPbDa-33" edge="1">
          <mxGeometry relative="1" as="geometry">
            <mxPoint x="790" y="495" as="sourcePoint" />
            <Array as="points">
              <mxPoint x="790" y="580" />
            </Array>
          </mxGeometry>
        </mxCell>
        <mxCell id="LGBW__geyH-p6XTnPbDa-35" value="인증정보" style="html=1;verticalAlign=bottom;endArrow=open;dashed=1;endSize=8;curved=0;rounded=0;exitX=0;exitY=1;exitDx=0;exitDy=-5;" parent="1" source="LGBW__geyH-p6XTnPbDa-33" target="LGBW__geyH-p6XTnPbDa-25" edge="1">
          <mxGeometry relative="1" as="geometry">
            <mxPoint x="790" y="565" as="targetPoint" />
          </mxGeometry>
        </mxCell>
        <mxCell id="LGBW__geyH-p6XTnPbDa-41" value="EmpOAuthFeign" style="shape=umlLifeline;perimeter=lifelinePerimeter;whiteSpace=wrap;html=1;container=1;dropTarget=0;collapsible=0;recursiveResize=0;outlineConnect=0;portConstraint=eastwest;newEdgeStyle={&quot;curved&quot;:0,&quot;rounded&quot;:0};" parent="1" vertex="1">
          <mxGeometry x="1080" y="40" width="100" height="1760" as="geometry" />
        </mxCell>
        <mxCell id="LGBW__geyH-p6XTnPbDa-42" value="" style="html=1;points=[[0,0,0,0,5],[0,1,0,0,-5],[1,0,0,0,5],[1,1,0,0,-5]];perimeter=orthogonalPerimeter;outlineConnect=0;targetShapes=umlLifeline;portConstraint=eastwest;newEdgeStyle={&quot;curved&quot;:0,&quot;rounded&quot;:0};" parent="LGBW__geyH-p6XTnPbDa-41" vertex="1">
          <mxGeometry x="45" y="659.97" width="10" height="80" as="geometry" />
        </mxCell>
        <mxCell id="AXu_qQL4ZWgnv2_Lezh4-8" value="" style="html=1;points=[[0,0,0,0,5],[0,1,0,0,-5],[1,0,0,0,5],[1,1,0,0,-5]];perimeter=orthogonalPerimeter;outlineConnect=0;targetShapes=umlLifeline;portConstraint=eastwest;newEdgeStyle={&quot;curved&quot;:0,&quot;rounded&quot;:0};" vertex="1" parent="LGBW__geyH-p6XTnPbDa-41">
          <mxGeometry x="45" y="960" width="10" height="80" as="geometry" />
        </mxCell>
        <mxCell id="LGBW__geyH-p6XTnPbDa-45" value="LMP" style="shape=umlLifeline;perimeter=lifelinePerimeter;whiteSpace=wrap;html=1;container=1;dropTarget=0;collapsible=0;recursiveResize=0;outlineConnect=0;portConstraint=eastwest;newEdgeStyle={&quot;curved&quot;:0,&quot;rounded&quot;:0};" parent="1" vertex="1">
          <mxGeometry x="1200" y="40" width="120" height="1760" as="geometry" />
        </mxCell>
        <mxCell id="LGBW__geyH-p6XTnPbDa-46" value="" style="html=1;points=[[0,0,0,0,5],[0,1,0,0,-5],[1,0,0,0,5],[1,1,0,0,-5]];perimeter=orthogonalPerimeter;outlineConnect=0;targetShapes=umlLifeline;portConstraint=eastwest;newEdgeStyle={&quot;curved&quot;:0,&quot;rounded&quot;:0};" parent="LGBW__geyH-p6XTnPbDa-45" vertex="1">
          <mxGeometry x="55" y="679.97" width="10" height="40" as="geometry" />
        </mxCell>
        <mxCell id="AXu_qQL4ZWgnv2_Lezh4-11" value="" style="html=1;points=[[0,0,0,0,5],[0,1,0,0,-5],[1,0,0,0,5],[1,1,0,0,-5]];perimeter=orthogonalPerimeter;outlineConnect=0;targetShapes=umlLifeline;portConstraint=eastwest;newEdgeStyle={&quot;curved&quot;:0,&quot;rounded&quot;:0};" vertex="1" parent="LGBW__geyH-p6XTnPbDa-45">
          <mxGeometry x="55" y="980" width="10" height="40" as="geometry" />
        </mxCell>
        <mxCell id="AXu_qQL4ZWgnv2_Lezh4-35" value="" style="html=1;points=[[0,0,0,0,5],[0,1,0,0,-5],[1,0,0,0,5],[1,1,0,0,-5]];perimeter=orthogonalPerimeter;outlineConnect=0;targetShapes=umlLifeline;portConstraint=eastwest;newEdgeStyle={&quot;curved&quot;:0,&quot;rounded&quot;:0};" vertex="1" parent="LGBW__geyH-p6XTnPbDa-45">
          <mxGeometry x="-75" y="1600" width="10" height="80" as="geometry" />
        </mxCell>
        <mxCell id="AXu_qQL4ZWgnv2_Lezh4-36" value="" style="html=1;points=[[0,0,0,0,5],[0,1,0,0,-5],[1,0,0,0,5],[1,1,0,0,-5]];perimeter=orthogonalPerimeter;outlineConnect=0;targetShapes=umlLifeline;portConstraint=eastwest;newEdgeStyle={&quot;curved&quot;:0,&quot;rounded&quot;:0};" vertex="1" parent="LGBW__geyH-p6XTnPbDa-45">
          <mxGeometry x="55" y="1620" width="10" height="40" as="geometry" />
        </mxCell>
        <mxCell id="AXu_qQL4ZWgnv2_Lezh4-39" value="/oauth/1.0/users/profile" style="html=1;verticalAlign=bottom;endArrow=block;curved=0;rounded=0;entryX=0;entryY=0;entryDx=0;entryDy=5;" edge="1" source="AXu_qQL4ZWgnv2_Lezh4-35" target="AXu_qQL4ZWgnv2_Lezh4-36" parent="LGBW__geyH-p6XTnPbDa-45">
          <mxGeometry relative="1" as="geometry">
            <mxPoint x="-25" y="1625" as="sourcePoint" />
          </mxGeometry>
        </mxCell>
        <mxCell id="AXu_qQL4ZWgnv2_Lezh4-40" value="사용자정보" style="html=1;verticalAlign=bottom;endArrow=open;dashed=1;endSize=8;curved=0;rounded=0;exitX=0;exitY=1;exitDx=0;exitDy=-5;" edge="1" source="AXu_qQL4ZWgnv2_Lezh4-36" target="AXu_qQL4ZWgnv2_Lezh4-35" parent="LGBW__geyH-p6XTnPbDa-45">
          <mxGeometry relative="1" as="geometry">
            <mxPoint x="-25" y="1695" as="targetPoint" />
          </mxGeometry>
        </mxCell>
        <mxCell id="AXu_qQL4ZWgnv2_Lezh4-41" value="LMP&amp;nbsp;사용자 정보 조회 요청" style="shape=umlFrame;whiteSpace=wrap;html=1;pointerEvents=0;width=160;height=15;fillColor=#60a917;fontColor=#ffffff;strokeColor=#2D7600;align=left;" vertex="1" parent="LGBW__geyH-p6XTnPbDa-45">
          <mxGeometry x="-320" y="1520" width="440" height="220" as="geometry" />
        </mxCell>
        <mxCell id="AXu_qQL4ZWgnv2_Lezh4-24" value="" style="html=1;points=[[0,0,0,0,5],[0,1,0,0,-5],[1,0,0,0,5],[1,1,0,0,-5]];perimeter=orthogonalPerimeter;outlineConnect=0;targetShapes=umlLifeline;portConstraint=eastwest;newEdgeStyle={&quot;curved&quot;:0,&quot;rounded&quot;:0};" vertex="1" parent="LGBW__geyH-p6XTnPbDa-45">
          <mxGeometry x="55" y="1319.97" width="10" height="40" as="geometry" />
        </mxCell>
        <mxCell id="LGBW__geyH-p6XTnPbDa-49" value="token and lmp url 확인" style="shape=umlFrame;whiteSpace=wrap;html=1;pointerEvents=0;fillColor=#1ba1e2;fontColor=#ffffff;strokeColor=#006EAF;width=140;height=20;align=left;" parent="1" vertex="1">
          <mxGeometry x="640" y="360" width="260" height="150" as="geometry" />
        </mxCell>
        <mxCell id="LGBW__geyH-p6XTnPbDa-50" value="" style="shape=umlLifeline;perimeter=lifelinePerimeter;whiteSpace=wrap;html=1;container=1;dropTarget=0;collapsible=0;recursiveResize=0;outlineConnect=0;portConstraint=eastwest;newEdgeStyle={&quot;curved&quot;:0,&quot;rounded&quot;:0};participant=umlActor;" parent="1" vertex="1">
          <mxGeometry x="10" y="40" width="20" height="2920" as="geometry" />
        </mxCell>
        <mxCell id="LGBW__geyH-p6XTnPbDa-51" value="[if null == authorizationCode ]" style="text;align=center;verticalAlign=middle;spacingLeft=3;spacingRight=3;strokeColor=none;rotatable=0;points=[[0,0.5],[1,0.5]];portConstraint=eastwest;html=1;" parent="1" vertex="1">
          <mxGeometry x="740" y="400" width="80" height="26" as="geometry" />
        </mxCell>
        <mxCell id="LGBW__geyH-p6XTnPbDa-52" value="[if null == empOauthServer ]" style="text;align=center;verticalAlign=middle;spacingLeft=3;spacingRight=3;strokeColor=none;rotatable=0;points=[[0,0.5],[1,0.5]];portConstraint=eastwest;html=1;" parent="1" vertex="1">
          <mxGeometry x="740" y="450" width="80" height="26" as="geometry" />
        </mxCell>
        <mxCell id="LGBW__geyH-p6XTnPbDa-53" style="edgeStyle=orthogonalEdgeStyle;rounded=0;orthogonalLoop=1;jettySize=auto;html=1;exitX=1;exitY=0.5;exitDx=0;exitDy=0;" parent="1" source="LGBW__geyH-p6XTnPbDa-51" target="LGBW__geyH-p6XTnPbDa-51" edge="1">
          <mxGeometry relative="1" as="geometry" />
        </mxCell>
        <mxCell id="AXu_qQL4ZWgnv2_Lezh4-1" value="LMP 서버 시간 요청" style="shape=umlFrame;whiteSpace=wrap;html=1;pointerEvents=0;width=123;height=20;fillColor=#60a917;fontColor=#ffffff;strokeColor=#2D7600;align=left;" vertex="1" parent="1">
          <mxGeometry x="880" y="600" width="440" height="220" as="geometry" />
        </mxCell>
        <mxCell id="LGBW__geyH-p6XTnPbDa-47" value="/oauth/1.0/datetime" style="html=1;verticalAlign=bottom;endArrow=block;curved=0;rounded=0;entryX=0;entryY=0;entryDx=0;entryDy=5;" parent="1" source="LGBW__geyH-p6XTnPbDa-42" target="LGBW__geyH-p6XTnPbDa-46" edge="1">
          <mxGeometry relative="1" as="geometry">
            <mxPoint x="1190" y="764.97" as="sourcePoint" />
          </mxGeometry>
        </mxCell>
        <mxCell id="LGBW__geyH-p6XTnPbDa-48" value="국가별 서버 시간" style="html=1;verticalAlign=bottom;endArrow=open;dashed=1;endSize=8;curved=0;rounded=0;exitX=0;exitY=1;exitDx=0;exitDy=-5;" parent="1" source="LGBW__geyH-p6XTnPbDa-46" target="LGBW__geyH-p6XTnPbDa-42" edge="1">
          <mxGeometry relative="1" as="geometry">
            <mxPoint x="1190" y="834.97" as="targetPoint" />
          </mxGeometry>
        </mxCell>
        <mxCell id="LGBW__geyH-p6XTnPbDa-43" value="getDate" style="html=1;verticalAlign=bottom;endArrow=block;curved=0;rounded=0;entryX=0;entryY=0;entryDx=0;entryDy=5;" parent="1" source="LGBW__geyH-p6XTnPbDa-39" target="LGBW__geyH-p6XTnPbDa-42" edge="1">
          <mxGeometry relative="1" as="geometry">
            <mxPoint x="900" y="724.97" as="sourcePoint" />
          </mxGeometry>
        </mxCell>
        <mxCell id="LGBW__geyH-p6XTnPbDa-44" value="국가별 서버 시간" style="html=1;verticalAlign=bottom;endArrow=open;dashed=1;endSize=8;curved=0;rounded=0;exitX=0;exitY=1;exitDx=0;exitDy=-5;" parent="1" source="LGBW__geyH-p6XTnPbDa-42" target="LGBW__geyH-p6XTnPbDa-39" edge="1">
          <mxGeometry relative="1" as="geometry">
            <mxPoint x="1030" y="734.97" as="targetPoint" />
          </mxGeometry>
        </mxCell>
        <mxCell id="AXu_qQL4ZWgnv2_Lezh4-2" value="EMPUtil" style="shape=umlLifeline;perimeter=lifelinePerimeter;whiteSpace=wrap;html=1;container=1;dropTarget=0;collapsible=0;recursiveResize=0;outlineConnect=0;portConstraint=eastwest;newEdgeStyle={&quot;curved&quot;:0,&quot;rounded&quot;:0};" vertex="1" parent="1">
          <mxGeometry x="1360" y="40" width="100" height="1760" as="geometry" />
        </mxCell>
        <mxCell id="AXu_qQL4ZWgnv2_Lezh4-3" value="" style="html=1;points=[[0,0,0,0,5],[0,1,0,0,-5],[1,0,0,0,5],[1,1,0,0,-5]];perimeter=orthogonalPerimeter;outlineConnect=0;targetShapes=umlLifeline;portConstraint=eastwest;newEdgeStyle={&quot;curved&quot;:0,&quot;rounded&quot;:0};" vertex="1" parent="AXu_qQL4ZWgnv2_Lezh4-2">
          <mxGeometry x="45" y="820" width="10" height="40" as="geometry" />
        </mxCell>
        <mxCell id="AXu_qQL4ZWgnv2_Lezh4-30" value="" style="html=1;points=[[0,0,0,0,5],[0,1,0,0,-5],[1,0,0,0,5],[1,1,0,0,-5]];perimeter=orthogonalPerimeter;outlineConnect=0;targetShapes=umlLifeline;portConstraint=eastwest;newEdgeStyle={&quot;curved&quot;:0,&quot;rounded&quot;:0};" vertex="1" parent="AXu_qQL4ZWgnv2_Lezh4-2">
          <mxGeometry x="45" y="1450" width="10" height="40" as="geometry" />
        </mxCell>
        <mxCell id="AXu_qQL4ZWgnv2_Lezh4-31" value="getSignature" style="html=1;verticalAlign=bottom;endArrow=block;curved=0;rounded=0;" edge="1" parent="AXu_qQL4ZWgnv2_Lezh4-2" source="AXu_qQL4ZWgnv2_Lezh4-17">
          <mxGeometry relative="1" as="geometry">
            <mxPoint x="-405" y="1459" as="sourcePoint" />
            <mxPoint x="45" y="1459" as="targetPoint" />
          </mxGeometry>
        </mxCell>
        <mxCell id="AXu_qQL4ZWgnv2_Lezh4-32" value="LMS 시그니처" style="html=1;verticalAlign=bottom;endArrow=open;dashed=1;endSize=8;curved=0;rounded=0;" edge="1" parent="AXu_qQL4ZWgnv2_Lezh4-2" target="AXu_qQL4ZWgnv2_Lezh4-17">
          <mxGeometry relative="1" as="geometry">
            <mxPoint x="-405" y="1480" as="targetPoint" />
            <mxPoint x="45" y="1480" as="sourcePoint" />
          </mxGeometry>
        </mxCell>
        <mxCell id="AXu_qQL4ZWgnv2_Lezh4-4" value="getSignature" style="html=1;verticalAlign=bottom;endArrow=block;curved=0;rounded=0;" edge="1" parent="1" source="LGBW__geyH-p6XTnPbDa-33">
          <mxGeometry relative="1" as="geometry">
            <mxPoint x="955" y="869" as="sourcePoint" />
            <mxPoint x="1405" y="869" as="targetPoint" />
          </mxGeometry>
        </mxCell>
        <mxCell id="AXu_qQL4ZWgnv2_Lezh4-5" value="LMS 시그니처" style="html=1;verticalAlign=bottom;endArrow=open;dashed=1;endSize=8;curved=0;rounded=0;" edge="1" parent="1" target="LGBW__geyH-p6XTnPbDa-33">
          <mxGeometry relative="1" as="geometry">
            <mxPoint x="955" y="890" as="targetPoint" />
            <mxPoint x="1405" y="890" as="sourcePoint" />
          </mxGeometry>
        </mxCell>
        <mxCell id="AXu_qQL4ZWgnv2_Lezh4-9" value="postRequestToken()" style="html=1;verticalAlign=bottom;endArrow=block;curved=0;rounded=0;entryX=0;entryY=0;entryDx=0;entryDy=5;" edge="1" target="AXu_qQL4ZWgnv2_Lezh4-8" parent="1" source="AXu_qQL4ZWgnv2_Lezh4-6">
          <mxGeometry relative="1" as="geometry">
            <mxPoint x="1055" y="1005" as="sourcePoint" />
          </mxGeometry>
        </mxCell>
        <mxCell id="AXu_qQL4ZWgnv2_Lezh4-10" value="인증정보" style="html=1;verticalAlign=bottom;endArrow=open;dashed=1;endSize=8;curved=0;rounded=0;exitX=0;exitY=1;exitDx=0;exitDy=-5;" edge="1" source="AXu_qQL4ZWgnv2_Lezh4-8" parent="1" target="AXu_qQL4ZWgnv2_Lezh4-6">
          <mxGeometry relative="1" as="geometry">
            <mxPoint x="1055" y="1075" as="targetPoint" />
          </mxGeometry>
        </mxCell>
        <mxCell id="AXu_qQL4ZWgnv2_Lezh4-12" value="/oauth/1.0/oauth2/token" style="html=1;verticalAlign=bottom;endArrow=block;curved=0;rounded=0;entryX=0;entryY=0;entryDx=0;entryDy=5;" edge="1" target="AXu_qQL4ZWgnv2_Lezh4-11" parent="1" source="AXu_qQL4ZWgnv2_Lezh4-8">
          <mxGeometry relative="1" as="geometry">
            <mxPoint x="1175" y="1025" as="sourcePoint" />
          </mxGeometry>
        </mxCell>
        <mxCell id="AXu_qQL4ZWgnv2_Lezh4-13" value="인증정보" style="html=1;verticalAlign=bottom;endArrow=open;dashed=1;endSize=8;curved=0;rounded=0;exitX=0;exitY=1;exitDx=0;exitDy=-5;" edge="1" source="AXu_qQL4ZWgnv2_Lezh4-11" parent="1" target="AXu_qQL4ZWgnv2_Lezh4-8">
          <mxGeometry relative="1" as="geometry">
            <mxPoint x="1175" y="1095" as="targetPoint" />
          </mxGeometry>
        </mxCell>
        <mxCell id="AXu_qQL4ZWgnv2_Lezh4-16" value="LMP 토큰 인증 요청" style="shape=umlFrame;whiteSpace=wrap;html=1;pointerEvents=0;width=123;height=20;fillColor=#60a917;fontColor=#ffffff;strokeColor=#2D7600;align=left;" vertex="1" parent="1">
          <mxGeometry x="880" y="920" width="440" height="220" as="geometry" />
        </mxCell>
        <mxCell id="AXu_qQL4ZWgnv2_Lezh4-18" value="getOAuthRequestUserProfile" style="html=1;verticalAlign=bottom;endArrow=block;curved=0;rounded=0;entryX=0;entryY=0;entryDx=0;entryDy=5;" edge="1" target="AXu_qQL4ZWgnv2_Lezh4-17" parent="1" source="LGBW__geyH-p6XTnPbDa-25">
          <mxGeometry relative="1" as="geometry">
            <mxPoint x="875" y="1225" as="sourcePoint" />
          </mxGeometry>
        </mxCell>
        <mxCell id="AXu_qQL4ZWgnv2_Lezh4-19" value="사용자정보" style="html=1;verticalAlign=bottom;endArrow=open;dashed=1;endSize=8;curved=0;rounded=0;exitX=0;exitY=1;exitDx=0;exitDy=-5;" edge="1" source="AXu_qQL4ZWgnv2_Lezh4-17" parent="1" target="LGBW__geyH-p6XTnPbDa-25">
          <mxGeometry relative="1" as="geometry">
            <mxPoint x="875" y="1295" as="targetPoint" />
          </mxGeometry>
        </mxCell>
        <mxCell id="AXu_qQL4ZWgnv2_Lezh4-42" value="사용자 EMP 정보 DB 조회" style="text;align=left;verticalAlign=middle;spacingLeft=3;spacingRight=3;strokeColor=none;rotatable=0;points=[[0,0.5],[1,0.5]];portConstraint=eastwest;html=1;" vertex="1" parent="1">
          <mxGeometry x="730" y="1858" width="150" height="26" as="geometry" />
        </mxCell>
        <mxCell id="AXu_qQL4ZWgnv2_Lezh4-43" value="CommomMapper" style="shape=umlLifeline;perimeter=lifelinePerimeter;whiteSpace=wrap;html=1;container=1;dropTarget=0;collapsible=0;recursiveResize=0;outlineConnect=0;portConstraint=eastwest;newEdgeStyle={&quot;curved&quot;:0,&quot;rounded&quot;:0};" vertex="1" parent="1">
          <mxGeometry x="1480" y="40" width="100" height="2520" as="geometry" />
        </mxCell>
        <mxCell id="AXu_qQL4ZWgnv2_Lezh4-48" value="" style="html=1;points=[[0,0,0,0,5],[0,1,0,0,-5],[1,0,0,0,5],[1,1,0,0,-5]];perimeter=orthogonalPerimeter;outlineConnect=0;targetShapes=umlLifeline;portConstraint=eastwest;newEdgeStyle={&quot;curved&quot;:0,&quot;rounded&quot;:0};" vertex="1" parent="AXu_qQL4ZWgnv2_Lezh4-43">
          <mxGeometry x="45" y="1840" width="10" height="40" as="geometry" />
        </mxCell>
        <mxCell id="AXu_qQL4ZWgnv2_Lezh4-54" value="" style="html=1;points=[[0,0,0,0,5],[0,1,0,0,-5],[1,0,0,0,5],[1,1,0,0,-5]];perimeter=orthogonalPerimeter;outlineConnect=0;targetShapes=umlLifeline;portConstraint=eastwest;newEdgeStyle={&quot;curved&quot;:0,&quot;rounded&quot;:0};" vertex="1" parent="AXu_qQL4ZWgnv2_Lezh4-43">
          <mxGeometry x="45" y="1960" width="10" height="40" as="geometry" />
        </mxCell>
        <mxCell id="AXu_qQL4ZWgnv2_Lezh4-57" value="" style="html=1;points=[[0,0,0,0,5],[0,1,0,0,-5],[1,0,0,0,5],[1,1,0,0,-5]];perimeter=orthogonalPerimeter;outlineConnect=0;targetShapes=umlLifeline;portConstraint=eastwest;newEdgeStyle={&quot;curved&quot;:0,&quot;rounded&quot;:0};" vertex="1" parent="AXu_qQL4ZWgnv2_Lezh4-43">
          <mxGeometry x="45" y="2040" width="10" height="40" as="geometry" />
        </mxCell>
        <mxCell id="AXu_qQL4ZWgnv2_Lezh4-73" value="" style="html=1;points=[[0,0,0,0,5],[0,1,0,0,-5],[1,0,0,0,5],[1,1,0,0,-5]];perimeter=orthogonalPerimeter;outlineConnect=0;targetShapes=umlLifeline;portConstraint=eastwest;newEdgeStyle={&quot;curved&quot;:0,&quot;rounded&quot;:0};" vertex="1" parent="AXu_qQL4ZWgnv2_Lezh4-43">
          <mxGeometry x="45" y="2230" width="10" height="40" as="geometry" />
        </mxCell>
        <mxCell id="AXu_qQL4ZWgnv2_Lezh4-76" value="" style="html=1;points=[[0,0,0,0,5],[0,1,0,0,-5],[1,0,0,0,5],[1,1,0,0,-5]];perimeter=orthogonalPerimeter;outlineConnect=0;targetShapes=umlLifeline;portConstraint=eastwest;newEdgeStyle={&quot;curved&quot;:0,&quot;rounded&quot;:0};" vertex="1" parent="AXu_qQL4ZWgnv2_Lezh4-43">
          <mxGeometry x="45" y="2350" width="10" height="40" as="geometry" />
        </mxCell>
        <mxCell id="AXu_qQL4ZWgnv2_Lezh4-71" value="사용자 정보 DB 저장&lt;div&gt;국가코드,이름&lt;/div&gt;" style="text;align=left;verticalAlign=middle;spacingLeft=3;spacingRight=3;strokeColor=none;rotatable=0;points=[[0,0.5],[1,0.5]];portConstraint=eastwest;html=1;" vertex="1" parent="AXu_qQL4ZWgnv2_Lezh4-43">
          <mxGeometry x="-750" y="2190" width="120" height="26" as="geometry" />
        </mxCell>
        <mxCell id="AXu_qQL4ZWgnv2_Lezh4-74" value="selectUserInfo(strUserId)" style="html=1;verticalAlign=bottom;endArrow=block;curved=0;rounded=0;entryX=0;entryY=0;entryDx=0;entryDy=5;" edge="1" target="AXu_qQL4ZWgnv2_Lezh4-73" parent="AXu_qQL4ZWgnv2_Lezh4-43">
          <mxGeometry relative="1" as="geometry">
            <mxPoint x="-754.9999999999998" y="2235" as="sourcePoint" />
          </mxGeometry>
        </mxCell>
        <mxCell id="AXu_qQL4ZWgnv2_Lezh4-75" value="사용자정보" style="html=1;verticalAlign=bottom;endArrow=open;dashed=1;endSize=8;curved=0;rounded=0;exitX=0;exitY=1;exitDx=0;exitDy=-5;" edge="1" source="AXu_qQL4ZWgnv2_Lezh4-73" parent="AXu_qQL4ZWgnv2_Lezh4-43">
          <mxGeometry relative="1" as="geometry">
            <mxPoint x="-754.9999999999998" y="2265" as="targetPoint" />
          </mxGeometry>
        </mxCell>
        <mxCell id="AXu_qQL4ZWgnv2_Lezh4-77" value="insertUserInfo(SecurityDto.User)" style="html=1;verticalAlign=bottom;endArrow=block;curved=0;rounded=0;entryX=0;entryY=0;entryDx=0;entryDy=5;" edge="1" target="AXu_qQL4ZWgnv2_Lezh4-76" parent="AXu_qQL4ZWgnv2_Lezh4-43">
          <mxGeometry relative="1" as="geometry">
            <mxPoint x="-754.9999999999998" y="2355" as="sourcePoint" />
          </mxGeometry>
        </mxCell>
        <mxCell id="AXu_qQL4ZWgnv2_Lezh4-78" value="void" style="html=1;verticalAlign=bottom;endArrow=open;dashed=1;endSize=8;curved=0;rounded=0;exitX=0;exitY=1;exitDx=0;exitDy=-5;" edge="1" source="AXu_qQL4ZWgnv2_Lezh4-76" parent="AXu_qQL4ZWgnv2_Lezh4-43">
          <mxGeometry relative="1" as="geometry">
            <mxPoint x="-754.9999999999998" y="2385" as="targetPoint" />
          </mxGeometry>
        </mxCell>
        <mxCell id="AXu_qQL4ZWgnv2_Lezh4-79" value="" style="html=1;points=[[0,0,0,0,5],[0,1,0,0,-5],[1,0,0,0,5],[1,1,0,0,-5]];perimeter=orthogonalPerimeter;outlineConnect=0;targetShapes=umlLifeline;portConstraint=eastwest;newEdgeStyle={&quot;curved&quot;:0,&quot;rounded&quot;:0};" vertex="1" parent="AXu_qQL4ZWgnv2_Lezh4-43">
          <mxGeometry x="45" y="2430" width="10" height="40" as="geometry" />
        </mxCell>
        <mxCell id="AXu_qQL4ZWgnv2_Lezh4-80" value="updateUserInfo(SecurityDto.User)" style="html=1;verticalAlign=bottom;endArrow=block;curved=0;rounded=0;entryX=0;entryY=0;entryDx=0;entryDy=5;" edge="1" target="AXu_qQL4ZWgnv2_Lezh4-79" parent="AXu_qQL4ZWgnv2_Lezh4-43">
          <mxGeometry relative="1" as="geometry">
            <mxPoint x="-754.9999999999998" y="2435" as="sourcePoint" />
          </mxGeometry>
        </mxCell>
        <mxCell id="AXu_qQL4ZWgnv2_Lezh4-81" value="void" style="html=1;verticalAlign=bottom;endArrow=open;dashed=1;endSize=8;curved=0;rounded=0;exitX=0;exitY=1;exitDx=0;exitDy=-5;" edge="1" source="AXu_qQL4ZWgnv2_Lezh4-79" parent="AXu_qQL4ZWgnv2_Lezh4-43">
          <mxGeometry relative="1" as="geometry">
            <mxPoint x="-754.9999999999998" y="2465" as="targetPoint" />
          </mxGeometry>
        </mxCell>
        <mxCell id="AXu_qQL4ZWgnv2_Lezh4-49" value="selectUserEmpInfo(strUserId)" style="html=1;verticalAlign=bottom;endArrow=block;curved=0;rounded=0;entryX=0;entryY=0;entryDx=0;entryDy=5;" edge="1" target="AXu_qQL4ZWgnv2_Lezh4-48" parent="1" source="LGBW__geyH-p6XTnPbDa-25">
          <mxGeometry relative="1" as="geometry">
            <mxPoint x="1455" y="1885" as="sourcePoint" />
          </mxGeometry>
        </mxCell>
        <mxCell id="AXu_qQL4ZWgnv2_Lezh4-50" value="사용자정보" style="html=1;verticalAlign=bottom;endArrow=open;dashed=1;endSize=8;curved=0;rounded=0;exitX=0;exitY=1;exitDx=0;exitDy=-5;" edge="1" source="AXu_qQL4ZWgnv2_Lezh4-48" parent="1" target="LGBW__geyH-p6XTnPbDa-25">
          <mxGeometry relative="1" as="geometry">
            <mxPoint x="1455" y="1955" as="targetPoint" />
          </mxGeometry>
        </mxCell>
        <mxCell id="AXu_qQL4ZWgnv2_Lezh4-51" value="사용자 EMP 정보 저장" style="text;align=left;verticalAlign=middle;spacingLeft=3;spacingRight=3;strokeColor=none;rotatable=0;points=[[0,0.5],[1,0.5]];portConstraint=eastwest;html=1;" vertex="1" parent="1">
          <mxGeometry x="730" y="1934" width="130" height="26" as="geometry" />
        </mxCell>
        <mxCell id="AXu_qQL4ZWgnv2_Lezh4-88" value="" style="edgeStyle=orthogonalEdgeStyle;rounded=0;orthogonalLoop=1;jettySize=auto;html=1;" edge="1" parent="1" source="AXu_qQL4ZWgnv2_Lezh4-52" target="AXu_qQL4ZWgnv2_Lezh4-51">
          <mxGeometry relative="1" as="geometry" />
        </mxCell>
        <mxCell id="AXu_qQL4ZWgnv2_Lezh4-52" value="[ if userEmpResult == null ]" style="text;align=left;verticalAlign=middle;spacingLeft=3;spacingRight=3;strokeColor=none;rotatable=0;points=[[0,0.5],[1,0.5]];portConstraint=eastwest;html=1;fontStyle=1" vertex="1" parent="1">
          <mxGeometry x="730" y="1960" width="80" height="26" as="geometry" />
        </mxCell>
        <mxCell id="AXu_qQL4ZWgnv2_Lezh4-53" value="[else]" style="text;align=left;verticalAlign=middle;spacingLeft=3;spacingRight=3;strokeColor=none;rotatable=0;points=[[0,0.5],[1,0.5]];portConstraint=eastwest;html=1;fontStyle=1" vertex="1" parent="1">
          <mxGeometry x="730" y="2040" width="80" height="26" as="geometry" />
        </mxCell>
        <mxCell id="AXu_qQL4ZWgnv2_Lezh4-60" value="ApiConEMPService" style="shape=umlLifeline;perimeter=lifelinePerimeter;whiteSpace=wrap;html=1;container=1;dropTarget=0;collapsible=0;recursiveResize=0;outlineConnect=0;portConstraint=eastwest;newEdgeStyle={&quot;curved&quot;:0,&quot;rounded&quot;:0};" vertex="1" parent="1">
          <mxGeometry x="1600" y="40" width="120" height="2240" as="geometry" />
        </mxCell>
        <mxCell id="AXu_qQL4ZWgnv2_Lezh4-68" value="" style="html=1;points=[[0,0,0,0,5],[0,1,0,0,-5],[1,0,0,0,5],[1,1,0,0,-5]];perimeter=orthogonalPerimeter;outlineConnect=0;targetShapes=umlLifeline;portConstraint=eastwest;newEdgeStyle={&quot;curved&quot;:0,&quot;rounded&quot;:0};" vertex="1" parent="AXu_qQL4ZWgnv2_Lezh4-60">
          <mxGeometry x="55" y="2140" width="10" height="40" as="geometry" />
        </mxCell>
        <mxCell id="AXu_qQL4ZWgnv2_Lezh4-69" value="getEmpMemberInfo" style="html=1;verticalAlign=bottom;endArrow=block;curved=0;rounded=0;entryX=0;entryY=0;entryDx=0;entryDy=5;" edge="1" target="AXu_qQL4ZWgnv2_Lezh4-68" parent="1" source="LGBW__geyH-p6XTnPbDa-25">
          <mxGeometry relative="1" as="geometry">
            <mxPoint x="827" y="2145" as="sourcePoint" />
          </mxGeometry>
        </mxCell>
        <mxCell id="AXu_qQL4ZWgnv2_Lezh4-70" value="EMP 사용자 정보" style="html=1;verticalAlign=bottom;endArrow=open;dashed=1;endSize=8;curved=0;rounded=0;exitX=0;exitY=1;exitDx=0;exitDy=-5;" edge="1" source="AXu_qQL4ZWgnv2_Lezh4-68" parent="1" target="LGBW__geyH-p6XTnPbDa-25">
          <mxGeometry relative="1" as="geometry">
            <mxPoint x="827" y="2175" as="targetPoint" />
          </mxGeometry>
        </mxCell>
        <mxCell id="AXu_qQL4ZWgnv2_Lezh4-26" value="/oauth/1.0/datetime" style="html=1;verticalAlign=bottom;endArrow=block;curved=0;rounded=0;entryX=0;entryY=0;entryDx=0;entryDy=5;" edge="1" source="AXu_qQL4ZWgnv2_Lezh4-23" target="AXu_qQL4ZWgnv2_Lezh4-24" parent="1">
          <mxGeometry relative="1" as="geometry">
            <mxPoint x="1190" y="1404.97" as="sourcePoint" />
          </mxGeometry>
        </mxCell>
        <mxCell id="AXu_qQL4ZWgnv2_Lezh4-27" value="국가별 서버 시간" style="html=1;verticalAlign=bottom;endArrow=open;dashed=1;endSize=8;curved=0;rounded=0;exitX=0;exitY=1;exitDx=0;exitDy=-5;" edge="1" source="AXu_qQL4ZWgnv2_Lezh4-24" target="AXu_qQL4ZWgnv2_Lezh4-23" parent="1">
          <mxGeometry relative="1" as="geometry">
            <mxPoint x="1190" y="1474.97" as="targetPoint" />
          </mxGeometry>
        </mxCell>
        <mxCell id="AXu_qQL4ZWgnv2_Lezh4-37" value="getRequestUserProfile()" style="html=1;verticalAlign=bottom;endArrow=block;curved=0;rounded=0;entryX=0;entryY=0;entryDx=0;entryDy=5;" edge="1" source="AXu_qQL4ZWgnv2_Lezh4-34" target="AXu_qQL4ZWgnv2_Lezh4-35" parent="1">
          <mxGeometry relative="1" as="geometry">
            <mxPoint x="1055" y="1645" as="sourcePoint" />
          </mxGeometry>
        </mxCell>
        <mxCell id="AXu_qQL4ZWgnv2_Lezh4-38" value="사용자정보" style="html=1;verticalAlign=bottom;endArrow=open;dashed=1;endSize=8;curved=0;rounded=0;exitX=0;exitY=1;exitDx=0;exitDy=-5;" edge="1" source="AXu_qQL4ZWgnv2_Lezh4-35" target="AXu_qQL4ZWgnv2_Lezh4-34" parent="1">
          <mxGeometry relative="1" as="geometry">
            <mxPoint x="1055" y="1715" as="targetPoint" />
          </mxGeometry>
        </mxCell>
        <mxCell id="AXu_qQL4ZWgnv2_Lezh4-55" value="insertUserEmpInfo" style="html=1;verticalAlign=bottom;endArrow=block;curved=0;rounded=0;entryX=0;entryY=0;entryDx=0;entryDy=5;" edge="1" target="AXu_qQL4ZWgnv2_Lezh4-54" parent="1" source="LGBW__geyH-p6XTnPbDa-25">
          <mxGeometry relative="1" as="geometry">
            <mxPoint x="730" y="2005" as="sourcePoint" />
          </mxGeometry>
        </mxCell>
        <mxCell id="AXu_qQL4ZWgnv2_Lezh4-56" value="void" style="html=1;verticalAlign=bottom;endArrow=open;dashed=1;endSize=8;curved=0;rounded=0;exitX=0;exitY=1;exitDx=0;exitDy=-5;" edge="1" source="AXu_qQL4ZWgnv2_Lezh4-54" parent="1" target="LGBW__geyH-p6XTnPbDa-25">
          <mxGeometry relative="1" as="geometry">
            <mxPoint x="695" y="2035" as="targetPoint" />
          </mxGeometry>
        </mxCell>
        <mxCell id="AXu_qQL4ZWgnv2_Lezh4-58" value="updateUserEmpInfo" style="html=1;verticalAlign=bottom;endArrow=block;curved=0;rounded=0;entryX=0;entryY=0;entryDx=0;entryDy=5;" edge="1" target="AXu_qQL4ZWgnv2_Lezh4-57" parent="1" source="LGBW__geyH-p6XTnPbDa-25">
          <mxGeometry relative="1" as="geometry">
            <mxPoint x="695" y="2085" as="sourcePoint" />
          </mxGeometry>
        </mxCell>
        <mxCell id="AXu_qQL4ZWgnv2_Lezh4-59" value="void" style="html=1;verticalAlign=bottom;endArrow=open;dashed=1;endSize=8;curved=0;rounded=0;exitX=0;exitY=1;exitDx=0;exitDy=-5;" edge="1" source="AXu_qQL4ZWgnv2_Lezh4-57" parent="1" target="LGBW__geyH-p6XTnPbDa-25">
          <mxGeometry relative="1" as="geometry">
            <mxPoint x="695" y="2115" as="targetPoint" />
          </mxGeometry>
        </mxCell>
        <mxCell id="AXu_qQL4ZWgnv2_Lezh4-85" value="&lt;span style=&quot;text-wrap: nowrap;&quot;&gt;사용자 LMP 정보 저장&lt;/span&gt;" style="shape=umlFrame;whiteSpace=wrap;html=1;pointerEvents=0;width=130;height=27;fillColor=#1ba1e2;fontColor=#ffffff;strokeColor=#006EAF;align=left;" vertex="1" parent="1">
          <mxGeometry x="680" y="1830" width="880" height="300" as="geometry" />
        </mxCell>
        <mxCell id="AXu_qQL4ZWgnv2_Lezh4-87" value="&lt;span style=&quot;text-wrap: nowrap;&quot;&gt;사용자 정보 DB 저장&lt;/span&gt;" style="shape=umlFrame;whiteSpace=wrap;html=1;pointerEvents=0;width=130;height=27;fillColor=#1ba1e2;fontColor=#ffffff;strokeColor=#006EAF;align=left;" vertex="1" parent="1">
          <mxGeometry x="680" y="2140" width="880" height="400" as="geometry" />
        </mxCell>
        <mxCell id="AXu_qQL4ZWgnv2_Lezh4-83" value="[ if userInfoResult == null]" style="text;align=left;verticalAlign=middle;spacingLeft=3;spacingRight=3;strokeColor=none;rotatable=0;points=[[0,0.5],[1,0.5]];portConstraint=eastwest;html=1;fontStyle=1" vertex="1" parent="1">
          <mxGeometry x="730" y="2350" width="80" height="26" as="geometry" />
        </mxCell>
        <mxCell id="AXu_qQL4ZWgnv2_Lezh4-84" value="[else]" style="text;align=left;verticalAlign=middle;spacingLeft=3;spacingRight=3;strokeColor=none;rotatable=0;points=[[0,0.5],[1,0.5]];portConstraint=eastwest;html=1;fontStyle=1" vertex="1" parent="1">
          <mxGeometry x="730" y="2430" width="80" height="26" as="geometry" />
        </mxCell>
        <mxCell id="AXu_qQL4ZWgnv2_Lezh4-89" value="신규 회원 권한 정보 DB 저장" style="shape=umlFrame;whiteSpace=wrap;html=1;pointerEvents=0;width=160;height=20;fillColor=#1ba1e2;strokeColor=#006EAF;align=left;" vertex="1" parent="1">
          <mxGeometry x="680" y="2560" width="880" height="200" as="geometry" />
        </mxCell>
        <mxCell id="AXu_qQL4ZWgnv2_Lezh4-90" value="포탈 token 생성" style="shape=umlFrame;whiteSpace=wrap;html=1;pointerEvents=0;width=130;height=27;fillColor=#1ba1e2;strokeColor=#006EAF;align=left;" vertex="1" parent="1">
          <mxGeometry x="680" y="2800" width="880" height="90" as="geometry" />
        </mxCell>
        <mxCell id="AXu_qQL4ZWgnv2_Lezh4-91" value="SecurityMapper" style="shape=umlLifeline;perimeter=lifelinePerimeter;whiteSpace=wrap;html=1;container=1;dropTarget=0;collapsible=0;recursiveResize=0;outlineConnect=0;portConstraint=eastwest;newEdgeStyle={&quot;curved&quot;:0,&quot;rounded&quot;:0};" vertex="1" parent="1">
          <mxGeometry x="1760" y="40" width="100" height="2880" as="geometry" />
        </mxCell>
        <mxCell id="AXu_qQL4ZWgnv2_Lezh4-92" value="" style="html=1;points=[[0,0,0,0,5],[0,1,0,0,-5],[1,0,0,0,5],[1,1,0,0,-5]];perimeter=orthogonalPerimeter;outlineConnect=0;targetShapes=umlLifeline;portConstraint=eastwest;newEdgeStyle={&quot;curved&quot;:0,&quot;rounded&quot;:0};" vertex="1" parent="AXu_qQL4ZWgnv2_Lezh4-91">
          <mxGeometry x="45" y="2560" width="10" height="40" as="geometry" />
        </mxCell>
        <mxCell id="AXu_qQL4ZWgnv2_Lezh4-96" value="" style="html=1;points=[[0,0,0,0,5],[0,1,0,0,-5],[1,0,0,0,5],[1,1,0,0,-5]];perimeter=orthogonalPerimeter;outlineConnect=0;targetShapes=umlLifeline;portConstraint=eastwest;newEdgeStyle={&quot;curved&quot;:0,&quot;rounded&quot;:0};" vertex="1" parent="AXu_qQL4ZWgnv2_Lezh4-91">
          <mxGeometry x="45" y="2640" width="10" height="40" as="geometry" />
        </mxCell>
        <mxCell id="AXu_qQL4ZWgnv2_Lezh4-97" value="securityMapper.insertGroupUserInfo(SecurityDto.GroupUser)" style="html=1;verticalAlign=bottom;endArrow=block;curved=0;rounded=0;entryX=0;entryY=0;entryDx=0;entryDy=5;" edge="1" target="AXu_qQL4ZWgnv2_Lezh4-96" parent="AXu_qQL4ZWgnv2_Lezh4-91">
          <mxGeometry relative="1" as="geometry">
            <mxPoint x="-1035" y="2645" as="sourcePoint" />
          </mxGeometry>
        </mxCell>
        <mxCell id="AXu_qQL4ZWgnv2_Lezh4-98" value="void" style="html=1;verticalAlign=bottom;endArrow=open;dashed=1;endSize=8;curved=0;rounded=0;exitX=0;exitY=1;exitDx=0;exitDy=-5;" edge="1" source="AXu_qQL4ZWgnv2_Lezh4-96" parent="AXu_qQL4ZWgnv2_Lezh4-91">
          <mxGeometry relative="1" as="geometry">
            <mxPoint x="-1035" y="2675" as="targetPoint" />
          </mxGeometry>
        </mxCell>
        <mxCell id="AXu_qQL4ZWgnv2_Lezh4-93" value="securityMapper.selectGroupAuthList(strUserId)" style="html=1;verticalAlign=bottom;endArrow=block;curved=0;rounded=0;entryX=0;entryY=0;entryDx=0;entryDy=5;" edge="1" target="AXu_qQL4ZWgnv2_Lezh4-92" parent="1" source="LGBW__geyH-p6XTnPbDa-25">
          <mxGeometry relative="1" as="geometry">
            <mxPoint x="1730" y="2605" as="sourcePoint" />
          </mxGeometry>
        </mxCell>
        <mxCell id="AXu_qQL4ZWgnv2_Lezh4-94" value="권한 목록" style="html=1;verticalAlign=bottom;endArrow=open;dashed=1;endSize=8;curved=0;rounded=0;exitX=0;exitY=1;exitDx=0;exitDy=-5;" edge="1" source="AXu_qQL4ZWgnv2_Lezh4-92" parent="1" target="LGBW__geyH-p6XTnPbDa-25">
          <mxGeometry relative="1" as="geometry">
            <mxPoint x="1730" y="2675" as="targetPoint" />
          </mxGeometry>
        </mxCell>
        <mxCell id="AXu_qQL4ZWgnv2_Lezh4-95" value="[ if 권한 목록 == null]" style="text;align=left;verticalAlign=middle;spacingLeft=3;spacingRight=3;strokeColor=none;rotatable=0;points=[[0,0.5],[1,0.5]];portConstraint=eastwest;html=1;fontStyle=1" vertex="1" parent="1">
          <mxGeometry x="730" y="2650" width="80" height="26" as="geometry" />
        </mxCell>
        <mxCell id="AXu_qQL4ZWgnv2_Lezh4-99" value="AuthService" style="shape=umlLifeline;perimeter=lifelinePerimeter;whiteSpace=wrap;html=1;container=1;dropTarget=0;collapsible=0;recursiveResize=0;outlineConnect=0;portConstraint=eastwest;newEdgeStyle={&quot;curved&quot;:0,&quot;rounded&quot;:0};" vertex="1" parent="1">
          <mxGeometry x="1900" y="40" width="100" height="2880" as="geometry" />
        </mxCell>
        <mxCell id="AXu_qQL4ZWgnv2_Lezh4-100" value="" style="html=1;points=[[0,0,0,0,5],[0,1,0,0,-5],[1,0,0,0,5],[1,1,0,0,-5]];perimeter=orthogonalPerimeter;outlineConnect=0;targetShapes=umlLifeline;portConstraint=eastwest;newEdgeStyle={&quot;curved&quot;:0,&quot;rounded&quot;:0};" vertex="1" parent="AXu_qQL4ZWgnv2_Lezh4-99">
          <mxGeometry x="45" y="2800" width="10" height="40" as="geometry" />
        </mxCell>
        <mxCell id="AXu_qQL4ZWgnv2_Lezh4-101" value="authService.signIn(signInParam)" style="html=1;verticalAlign=bottom;endArrow=block;curved=0;rounded=0;entryX=0;entryY=0;entryDx=0;entryDy=5;" edge="1" target="AXu_qQL4ZWgnv2_Lezh4-100" parent="1" source="LGBW__geyH-p6XTnPbDa-25">
          <mxGeometry relative="1" as="geometry">
            <mxPoint x="865" y="2845" as="sourcePoint" />
          </mxGeometry>
        </mxCell>
        <mxCell id="AXu_qQL4ZWgnv2_Lezh4-102" value="AuthDto.SignInResult" style="html=1;verticalAlign=bottom;endArrow=open;dashed=1;endSize=8;curved=0;rounded=0;exitX=0;exitY=1;exitDx=0;exitDy=-5;" edge="1" source="AXu_qQL4ZWgnv2_Lezh4-100" parent="1" target="LGBW__geyH-p6XTnPbDa-25">
          <mxGeometry relative="1" as="geometry">
            <mxPoint x="865" y="2875" as="targetPoint" />
          </mxGeometry>
        </mxCell>
      </root>
    </mxGraphModel>
  </diagram>
</mxfile>
